<svg xmlns="http://www.w3.org/2000/svg" width="78" height="32" viewBox="0 0 78 32">
  <title>logo [復元]</title>
  <g>
    <path d="M1.6,26.512a.333.333,0,0,1-.5.108.332.332,0,0,1-.108-.5A48.106,48.106,0,0,0,7.145,12.688c.047-.192-.024-.288-.216-.288H1.817a.36.36,0,1,1,0-.72H7.253a.286.286,0,0,0,.324-.324V.52a.318.318,0,0,1,.36-.36A.319.319,0,0,1,8.3.52V11.356a.286.286,0,0,0,.324.324H13.7a.36.36,0,1,1,0,.72H8.837q-.288,0-.144.288,2.448,4.68,4.428,8.748c.095.264.048.432-.144.5-.241.1-.4.048-.468-.144Q10.924,18.484,8.441,13.8a.122.122,0,0,0-.09-.036q-.054,0-.054.072V31.48a.319.319,0,0,1-.36.36.318.318,0,0,1-.36-.36V14.164q0-.036-.054-.036t-.054.036A48.8,48.8,0,0,1,1.6,26.512ZM4.949,10.06q-1.62-4.284-3.1-7.272Q1.708,2.428,2,2.32c.239-.1.4-.048.468.144q1.692,3.42,3.168,7.308c.1.216.023.373-.216.468A.313.313,0,0,1,4.949,10.06Zm5.508.18a.327.327,0,0,1-.144-.5,43.79,43.79,0,0,0,3.1-7.488c.095-.264.252-.36.468-.288.264.048.347.192.252.432a43.478,43.478,0,0,1-3.2,7.7Q10.781,10.456,10.457,10.24Zm2.52,14.04a.324.324,0,0,1,.288-.432l15.984-2.916a.341.341,0,0,0,.288-.36V.52a.36.36,0,0,1,.72,0V20.428c0,.216.1.3.288.252l3.6-.648a.367.367,0,0,1,.144.72l-3.744.684a.34.34,0,0,0-.288.36V31.48a.36.36,0,0,1-.72,0V21.9c0-.216-.1-.3-.288-.252l-15.84,2.916A.324.324,0,0,1,12.977,24.28Zm10.116-6.156a92.673,92.673,0,0,0-6.7-6.66.315.315,0,0,1,0-.5c.191-.192.36-.2.5-.036a80.961,80.961,0,0,1,6.732,6.732c.167.144.156.312-.036.5Q23.381,18.376,23.093,18.124Zm2.88-8.1a91.579,91.579,0,0,0-6.48-6.48c-.193-.192-.2-.36-.036-.5.168-.167.324-.18.468-.036a89.659,89.659,0,0,1,6.588,6.552.3.3,0,0,1-.036.5Q26.261,10.312,25.973,10.024Z"/>
    <path d="M45.485,10.384a.328.328,0,0,1-.5-.144.343.343,0,0,1,.18-.5A86.505,86.505,0,0,0,60.137.448a1.44,1.44,0,0,1,1.728,0A86.505,86.505,0,0,0,76.841,9.736q.36.216.18.5a.328.328,0,0,1-.5.144,86.169,86.169,0,0,1-15.3-9.5.36.36,0,0,0-.432,0A86.169,86.169,0,0,1,45.485,10.384Zm.576,19.836a.318.318,0,0,1,.36-.36h13.9a.286.286,0,0,0,.324-.324V17.008q0-.288-.324-.288H47.861a.36.36,0,0,1,0-.72H60.317a.286.286,0,0,0,.324-.324V9.448q0-.288-.324-.288H51.641a.318.318,0,0,1-.36-.36.319.319,0,0,1,.36-.36h18.72a.319.319,0,0,1,.36.36.318.318,0,0,1-.36.36H61.685q-.324,0-.324.288v6.228a.286.286,0,0,0,.324.324H74.141a.36.36,0,0,1,0,.72H61.685q-.324,0-.324.288V29.536a.286.286,0,0,0,.324.324h13.9a.36.36,0,0,1,0,.72H46.421A.319.319,0,0,1,46.061,30.22Zm9.72-3.24c-.193.12-.36.06-.5-.18a67.509,67.509,0,0,0-3.888-6.876c-.144-.216-.12-.383.072-.5a.333.333,0,0,1,.5.108,71.7,71.7,0,0,1,4,6.984A.313.313,0,0,1,55.781,26.98Zm14.076-7.56a.354.354,0,0,1,.5-.18q.288.108.144.5a61.753,61.753,0,0,1-3.96,6.948.333.333,0,0,1-.5.108q-.288-.18-.072-.54A70.882,70.882,0,0,0,69.857,19.42Z"/>
  </g>
</svg>
