<svg viewBox="0 0 100 100"><path fill="#fad791" d="M84.1 55.15l-16.56-.68-10.73.68 17.71 24.08 9.58-24.08z"/><path fill="#624a1e" d="M84.1 45.18l-16.56.68-10.73-.68L74.52 21.1l9.58 24.08zM15.9 45.15l16.56.71 10.73-.68-17.71-23.96-9.58 23.93z"/><path fill="#fad791" d="M15.9 55.15l16.56-.68 10.73.68-17.71 24.1-9.58-24.1z"/><path fill="#d9a741" d="M74.52 44.22l9.58.96V25.89l-9.58-4.79v23.12z"/><path fill="#876929" d="M56.81 25.88l17.71-4.78v23.12l-17.71.96v-19.3z"/><path fill="#d9a741" d="M50 23.08l19.18 6.27v9.54L50 35.51V23.08z"/><path fill="#624a1e" d="M41.36 37.08l8.78-1.55 19.04 3.36-8.51.93-19.31-2.74z"/><path fill="#876929" d="M25.48 44.22l-9.58.93V25.8l9.58-4.72v23.14z"/><path fill="#d9a741" d="M43.19 25.88l-17.71-4.8v23.14l17.71.96v-19.3z"/><path fill="#876929" d="M50 23.08l-19.18 6.27v9.54L50 35.51V23.08z"/><path fill="#624a1e" d="M58.64 37.08l-8.78-1.55-19.04 3.36 8.51.93 19.31-2.74z"/><path fill="#d9a741" d="M74.52 56.11l9.58-.96v19.29l-9.58 4.79V56.11z"/><path fill="#876929" d="M56.81 74.45l17.71 4.78V56.11l-17.71-.96v19.3z"/><path fill="#d9a741" d="M50 77.25l19.18-6.27v-9.54L50 64.82v12.43z"/><path fill="#fad791" d="M41.36 63.25l8.78 1.54 19.04-3.35-8.51-.93-19.31 2.74z"/><path fill="#876929" d="M25.48 56.11l-9.58-.96v19.29l9.58 4.81V56.11z"/><path fill="#d9a741" d="M43.19 74.45l-17.71 4.8V56.11l17.71-.96v19.3z"/><path fill="#876929" d="M50 77.25l-19.18-6.27v-9.54L50 64.82v12.43z"/><path fill="#fad791" d="M58.64 63.25l-8.78 1.54-19.04-3.35 8.51-.93 19.31 2.74z"/><path fill="#876929" d="M39.8 86.06l10.2 5.1 5.66-2.83 4.54-74.39L50 8.84l-10.2 5.1v72.12z"/><path fill="#d9a741" d="M60.2 86.06L50 91.16V8.84l10.2 5.1v72.12z"/></svg>