<svg xmlns="http://www.w3.org/2000/svg" viewBox="0 0 100 100"><path fill="#F2B0A9" d="M39.7 57L24 78.1l-8.2-21 15-.9zM60.1 57L76 78.2l8.1-21.1-14.9-.9z"/><path fill="#5E1F18" d="M39.7 43L24 21.8 15.8 43l15.1.9zM60.1 43L76 21.8 84.2 43l-15 .9z"/><path fill="#8C3123" d="M60.1 43L76 41.8v-20l-15.9 4.1z"/><path fill="#E05243" d="M84.2 43L76 41.8v-20l8.2 4.1z"/><path fill="#8C3123" d="M60.1 57L76 58.3v19.9l-15.9-4.1z"/><path fill="#E05243" d="M84.1 57.1L76 58.3v19.9l8.1-4zM39.7 43L24 41.8v-20l15.7 4.1z"/><path fill="#8C3123" d="M15.8 43l8.2-1.2v-20l-8.2 4.1z"/><path fill="#E05243" d="M39.7 57L24 58.3v19.9l15.7-4.1z"/><path fill="#8C3123" d="M15.8 57.1l8.2 1.2v19.9l-8.2-4.1z"/><path fill="#F2B0A9" d="M66.3 59.7L50 58l-16.5 1.6L50 91.2z"/><path fill="#5E1F18" d="M66.3 40.4L50 42l-16.5-1.6L50 8.8z"/><path fill="#E05243" d="M66.3 40.4L50 38V8.8L66.3 17z"/><path fill="#8C3123" d="M33.5 40.4L50 38V8.8l-16.5 8.3z"/><path fill="#E05243" d="M66.3 59.7L50 62v29.2l16.3-8.1z"/><path fill="#8C3123" d="M33.5 59.6L50 62v29.2L33.5 83z"/></svg>