<svg xmlns="http://www.w3.org/2000/svg" viewBox="0 0 100 100"><title>DynamoDB</title><path fill="#2E73B8" d="M82.3 37.5v-7.6l-8-8.8L61.2 50l13.1 28.8 8-8.7v-7.6l-2.7 1.8v-3.7l2.7-1.3v-7.7l-2.7.1v-3.4l2.7.1v-7.5l-2.7-1.4V37z"/><path fill="#5294CF" d="M60 86l14.3-7.1V21.1L60 14 43.8 50.6z"/><path fill="#2E73B8" d="M40 86h20V14H40L29.7 50.6z"/><path fill="#205B99" d="M40 86l-14.4-7.1-4.5-28.3 4.5-29.5L40 14z"/><path fill="#19486F" d="M79.6 60.6l-5.3 2.6L60 66.3H40l-14-3.1h-.4V52.3l14.4 1h20l14.3-1 8-.7h-2.7v-3.2h2.6l-7.9-.6-14.3-.5H40.1l-14.5.4v-11h.2l14.3-3.4H60l14.3 3.4 5.3 2.8v-1.8l2.7-.2-8-5.6L60 27.3H40.1l-14.5 4.8v-11l-7 8.8v7.6l2 .2v1.9l-2 1.2v7.6h2v3.2h-2v7.6l2 1.2v1.9l-2 .2v7.6l7 8.7V67.9L40 72.3h20l14.3-4.4 8-5.4-2.7-.2z"/></svg>