<svg xmlns="http://www.w3.org/2000/svg" viewBox="0 0 100 100"><path fill="#9D5025" d="M19.3 24.2l-3.4 1.7v48.2l3.4 1.7 13.9-24.5z"/><path fill="#F58536" d="M27.3 74l-8 1.8V24.2l8 1.8z"/><path fill="#9D5025" d="M23.1 22.3l4.2-2.1 20 32-20 27.6-4.2-2.1z"/><path fill="#F58536" d="M37.2 77l-9.9 2.8V20.2l9.9 2.8z"/><path fill="#9D5025" d="M32 17.8l5.2-2.6 29.5 40.5-29.5 29.1-5.2-2.6z"/><path fill="#F58536" d="M50 80.1l-12.8 4.7V15.2L50 19.9z"/><path fill="#9D5025" d="M43.2 12.2L50 8.8l31.8 43.5L50 91.2l-6.8-3.4z"/><path fill="#F58536" d="M84.1 74.1L50 91.2V8.8l34.1 17.1z"/></svg>