<svg xmlns="http://www.w3.org/2000/svg" viewBox="0 0 100 100"><path fill="#9D5025" d="M15.9 74.1l4.3 2.2L27.9 50l-7.7-26.3-4.3 2.2z"/><path fill="#F58536" d="M28.7 25.7l-8.5-2v52.6l8.5-2z"/><path fill="#9D5025" d="M25.5 21.1l6.3-3.2 8 32.1-8 32.1-6.3-3.2z"/><path fill="#F58536" d="M44.9 77.8L31.8 82V17.9l13.1 4.2z"/><path fill="#9D5025" d="M74.5 29.2h5.2v39.9l-5.2-.3z"/><path fill="#6B3A19" d="M54.3 29.7l5.8-3 19.2 2.5.6 5.1-5.3.7z"/><path fill="#FBBF93" d="M54.4 70.3l5.9 3 19.8-7.6-5.3-.7z"/><path fill="#9D5025" d="M55.9 61.8l10.5 1.4V36.8l-10.5 1.4z"/><path fill="#9D5025" d="M39.8 86.1L50 91.2l8.8-41.3L50 8.8l-10.2 5.1z"/><path fill="#F58536" d="M50 8.8v82.3L84.1 74V25.9L50 8.8zm29.7 57l-19.5 5.9V28.4l19.5 5.9v31.5z"/><path fill="#F58536" d="M66.4 36.8v26.5L77.2 50z"/></svg>