<svg xmlns="http://www.w3.org/2000/svg" viewBox="0 0 194 12"><title>メニューからサービスを選択する。</title><g fill="#231815"><path d="M8.55 1.9c-.08.17-.19.46-.28.68a14.81 14.81 0 01-2 3.79 32.36 32.36 0 013.06 2.86l-.28.28A27.4 27.4 0 006 6.64a14.56 14.56 0 01-4.93 4l-.27-.23a14 14 0 005-4 36.67 36.67 0 00-3.56-2.56l.23-.29c1.1.73 2.66 1.86 3.53 2.57a13.8 13.8 0 001.94-3.7 6.81 6.81 0 00.2-.67zM13.33 9.09c.35 0 .61.05 1 .05h7.48a8.14 8.14 0 00.87-.05v.47a8.44 8.44 0 00-.87 0H13.34zm1.06-6h7.26v.41h-7.26zM33.92 9.77h.72v.39h-8.33v-.42h5.63c.16-.84.62-4 .64-4.66h-5.1V4.7h4.93a.92.92 0 00.3 0l.31.14a1.14 1.14 0 00-.05.24c-.09.93-.49 3.7-.66 4.68zM37.79 5.72h8.12a11.2 11.2 0 001.17 0v.45h-9.29zM54.33 1.34c0 .13 0 .25-.07.42s-.18 1.32-.36 2.15c.7-.06 1.34-.11 1.66-.11.86 0 1.72.26 1.72 1.76a10.85 10.85 0 01-.72 4.24 1.44 1.44 0 01-1.52.88 6.31 6.31 0 01-1.37-.18l-.06-.44a5.12 5.12 0 001.47.26 1.1 1.1 0 001.18-.7 10.79 10.79 0 00.64-4c0-1.22-.59-1.46-1.36-1.46-.38 0-1 0-1.72.11a22.69 22.69 0 01-2.57 6.41l-.41-.16a19.76 19.76 0 002.59-6.22c-.8.07-1.58.16-2 .18l-.81.1-.06-.48h.85c.31 0 1.25-.09 2.09-.16a14.12 14.12 0 00.35-2.64zm4.08 1.42a19.42 19.42 0 012.26 4.06l-.35.18a15.87 15.87 0 00-2.24-4.07zM65.19 7.21a5.75 5.75 0 014.2-1.73c1.56 0 2.78.91 2.78 2.26 0 2.08-2.06 3.3-5.94 3l-.11-.41c3.92.42 5.69-.86 5.69-2.6 0-1.11-1-1.88-2.41-1.88a5 5 0 00-4 1.75 1.45 1.45 0 00-.27.5l-.48-.1a41.19 41.19 0 00.62-4.67h.44c-.16 1-.36 3.02-.52 3.88zm1.11-5.77a33.37 33.37 0 004.43.91l-.09.38c-1.06-.14-3.56-.65-4.45-.9zM85.19 4c.44 0 .88-.05.88-.05v.44h-2.63v.44c0 3.42-.66 4.89-3.24 6.07l-.32-.31c2-.87 3.2-1.89 3.2-5.66v-.54h-4v3.16h-.45V4.39h-2.56V4s.68.05 1.1.05h1.57V2.14v-.66h.43a5.52 5.52 0 000 .65V4h4V2.29v-.85h.45a7.49 7.49 0 000 .85V4zM88.79 5.72h8.12a11.2 11.2 0 001.17 0v.45h-9.29zM102.72 9.06c0 .71.27.89.9 1a10.88 10.88 0 001.78.12 18.53 18.53 0 004-.36v.45a33.43 33.43 0 01-4 .25 11.2 11.2 0 01-1.82-.1c-.8-.14-1.22-.42-1.22-1.33V2.44a2.72 2.72 0 00-.06-.69h.47a4.07 4.07 0 000 .69V5.6a31.07 31.07 0 005-1.59 5.32 5.32 0 00.8-.44l.2.41c-.23.09-.55.25-.87.37A43.14 43.14 0 01102.72 6zM109 3.28a12.72 12.72 0 00-1-1.65l.32-.16a13.63 13.63 0 011 1.65zm.54-2.23a14.93 14.93 0 011 1.63l-.34.17a10.32 10.32 0 00-1-1.64zM121.83 2.64a1.46 1.46 0 00-.17.3 13.68 13.68 0 01-2.16 3.74 32.43 32.43 0 013.66 3.73l-.3.26a31.44 31.44 0 00-3.58-3.74 15.46 15.46 0 01-4.86 3.65l-.29-.32a14 14 0 005-3.68 11.78 11.78 0 002.19-3.74H115v-.42s.62.06 1 .06h5a2 2 0 00.55 0zM131.58 6.8c-1.29.67-2.37 1.42-2.37 2.41 0 1.2 1.27 1.29 2.57 1.29a22.58 22.58 0 003.11-.24v.41a28.24 28.24 0 01-3.13.19c-1.53 0-2.89-.27-2.89-1.63s1.27-2.05 2.68-2.79h.06v-.11c0-.62-.49-1-1.23-1a3.25 3.25 0 00-2.24.93c-.32.3-.67.73-1.07 1.17l-.36-.26a12.59 12.59 0 002.85-4h-.84c-.53 0-1.24 0-1.9-.06V2.7c.66.07 1.44.1 1.92.1h1a6 6 0 00.38-1.58h.4a11.81 11.81 0 01-.4 1.54 30.36 30.36 0 003.88-.35v.39a29.17 29.17 0 01-4 .35v.09a8.76 8.76 0 01-1.42 2.37 3.45 3.45 0 011.84-.61A1.4 1.4 0 01132 6.22c1-.49 2-.87 2.76-1.23a6.16 6.16 0 00.63-.32l.18.41c-.21.06-.44.16-.68.25-.82.33-1.85.74-2.89 1.26v2.45h-.42V6.79zM140.85 9.29a4.26 4.26 0 003.54 1.51h5.16a.86.86 0 00-.13.37c-1.2 0-3.78.06-5 0a4.66 4.66 0 01-3.72-1.52c-.58.56-1.18 1.14-1.77 1.68l-.25-.34a21.66 21.66 0 001.81-1.64V5.73h-1.7v-.35h2.06zm.15-6.16a8.23 8.23 0 00-2-2l.27-.19a7.93 7.93 0 012 2zM149.49 8h-8v-.34h2.37V6.17h-2v-.34h2V4.72h.36v1.11h2.55V4.72h.34v1.11h2v.34h-2v1.49h2.38zm-4.83-6.5h-2.86v-.34h3.2v1.76h-2.63v1c0 .2.07.25.53.25h1.69c.33 0 .39-.07.41-.73a.78.78 0 00.34.13c0 .74-.18.92-.68.92h-1.75c-.71 0-.89-.08-.89-.57V2.56h2.62zm-.08 6.94a11 11 0 01-2.31 1.65 1.82 1.82 0 00-.28-.27 8.61 8.61 0 002.26-1.49zm-.36-.79h2.55V6.17h-2.55zm4.31-6.15h-2.77v-.34h3.12v1.76h-2.55v1c0 .21.09.26.58.26h1.88c.35 0 .41-.09.45-.8a1.22 1.22 0 00.33.14c0 .79-.18 1-.72 1h-1.93c-.73 0-.93-.08-.93-.58V2.56h2.54zm.32 8.65a10.7 10.7 0 00-2.3-1.56l.23-.21a11.61 11.61 0 012.36 1.53zM154 6.87v3.91c0 .36-.13.49-.37.55a8.11 8.11 0 01-1.62.07 1.28 1.28 0 00-.16-.34h1.53c.17 0 .27-.06.27-.27V7c-.73.21-1.41.42-2 .57l-.14-.37c.58-.14 1.33-.35 2.13-.56v-3.1h-2v-.36h2V.6h.36v2.58h1.83v.36H154v3l1.89-.54.05.33zm5.31-1.09c.54 2.41 1.66 4.45 3.33 5.32a2.62 2.62 0 00-.28.3c-1.7-1-2.83-3.09-3.38-5.62h-2.07c0 1.8-.31 4-1.83 5.61a1.55 1.55 0 00-.27-.23c1.59-1.64 1.76-3.94 1.76-5.77V1.3H162v4.48zm2.24-.35V1.65h-4.64v3.78zM171.38 2.9h3.27v.39c-.6 0-1.53-.05-3.26-.05h-.59v2.12a2.65 2.65 0 01.33 1.41c0 1.66-.64 3.27-3.27 4.11l-.37-.34c2-.5 3-1.56 3.21-3a1.48 1.48 0 01-1.33.81 1.73 1.73 0 01-1.86-1.82 1.92 1.92 0 011.82-1.91 1.78 1.78 0 011.11.36V3.27c-1.82 0-4 .1-5.51.24v-.44c1.25 0 3.51-.13 5.5-.16V1.72a2.09 2.09 0 000-.46h.48V2.9zm-.62 3.51c-.12-1-.68-1.44-1.37-1.44a1.51 1.51 0 00-1.48 1.55A1.39 1.39 0 00169.4 8c.83 0 1.28-.64 1.36-1.59zM185.24 2.13l-.51.39c-.52.42-2.47 2.18-3.56 3.11a6.11 6.11 0 012.13-.36c1.93 0 3.23 1.13 3.23 2.62 0 2-1.74 3-3.89 3-1.59 0-2.32-.67-2.32-1.45a1.39 1.39 0 011.54-1.27 2.33 2.33 0 012.35 2.15 2.46 2.46 0 002-2.39c0-1.26-1.24-2.24-2.87-2.24-2.1 0-3.07.69-4.81 2.31l-.32-.3 3.42-2.87c.66-.55 2.38-2 3-2.57l-4.31.2a4.56 4.56 0 00-.62.05V2a4.58 4.58 0 00.61 0c.6 0 3.69-.12 4.27-.18l.38-.07zm-1.41 8.24a1.94 1.94 0 00-2-1.88c-.64 0-1.16.37-1.16.9 0 .71.88 1.1 1.94 1.1a5.12 5.12 0 001.22-.12zM193.2 9.39a1.72 1.72 0 11-1.72-1.72 1.71 1.71 0 011.72 1.72zm-.36 0a1.36 1.36 0 10-1.36 1.35 1.36 1.36 0 001.36-1.35z"/></g></svg>