<svg xmlns="http://www.w3.org/2000/svg" xmlns:xlink="http://www.w3.org/1999/xlink" viewBox="0 0 256 180"><title>ざっくりAWS</title><path fill="#222" d="M236.919,62.072 C233.349,63.682 228.448,65.083 223.198,65.993 C221.798,62.002 221.027,60.462 219.067,57.732 C226.068,56.962 230.128,55.912 234.399,53.741 C242.520,49.611 246.230,42.960 246.230,32.319 C246.230,22.238 242.870,16.638 236.849,16.638 C234.189,16.638 231.739,17.828 229.288,20.348 C223.828,26.018 220.467,34.629 220.467,42.960 C220.467,43.310 220.467,43.800 220.467,44.430 L212.067,44.570 C212.137,44.150 212.137,43.800 212.137,43.660 C212.137,43.380 212.137,42.960 212.137,42.330 C212.067,40.300 211.927,35.119 211.927,33.719 C211.927,28.049 212.347,20.278 212.907,15.447 L213.957,6.766 C214.097,5.576 214.167,5.296 214.167,4.386 L223.058,4.876 C222.218,7.257 221.868,9.077 220.537,18.388 C220.047,21.328 219.767,23.708 219.627,25.388 L219.837,25.388 C219.977,24.968 219.977,24.968 220.257,23.848 C220.957,21.398 222.778,17.968 224.668,15.517 C228.518,10.757 232.859,8.377 237.969,8.377 C242.730,8.377 246.930,10.617 249.940,14.677 C253.441,19.368 254.981,25.038 254.981,33.299 C254.981,46.811 248.680,56.892 236.919,62.072 ZM167.199,57.732 C162.228,53.111 159.918,51.221 149.137,42.820 C144.517,39.250 143.256,37.360 143.256,34.139 C143.256,32.039 144.027,30.149 145.567,28.469 C146.477,27.489 146.547,27.419 151.727,23.428 C159.288,17.688 163.209,14.327 167.899,9.777 C171.049,6.626 171.819,5.716 173.010,3.966 L181.060,10.127 C179.870,10.967 178.540,12.157 172.450,17.828 C168.879,21.118 163.979,25.038 155.788,31.269 C153.618,32.879 153.128,33.439 153.128,34.209 C153.128,35.259 153.268,35.399 159.428,40.020 C170.349,48.281 172.380,50.031 181.480,58.292 C182.181,58.992 182.601,59.342 183.511,60.042 L176.300,67.323 C174.480,64.803 171.959,62.142 167.199,57.732 ZM86.908,65.153 C86.208,61.652 85.648,60.322 83.897,57.172 C84.387,57.172 84.667,57.172 84.948,57.172 C87.538,57.172 91.458,56.752 94.889,56.122 C100.349,55.072 103.429,53.811 106.580,51.361 C109.940,48.841 111.550,45.761 111.550,41.910 C111.550,36.450 107.490,33.509 100.069,33.509 C95.239,33.509 89.848,34.279 81.657,36.240 C77.177,37.290 75.917,37.640 73.536,38.620 L71.786,30.219 C73.746,30.079 73.746,30.079 79.067,28.889 C88.588,26.789 94.889,25.948 100.699,25.948 C108.680,25.948 114.071,28.259 117.221,33.089 C118.971,35.750 119.811,38.690 119.811,42.120 C119.811,51.431 113.230,58.992 102.099,62.492 C97.759,63.822 96.009,64.102 86.908,65.153 ZM51.141,3.686 L55.832,1.236 C59.052,4.456 60.942,7.117 63.112,11.107 L58.282,13.837 C56.182,9.987 53.871,6.696 51.141,3.686 ZM51.701,16.848 L52.401,22.168 L51.141,22.378 C50.371,22.518 49.811,22.588 49.531,22.658 C49.531,22.658 48.691,22.868 47.851,23.008 C45.891,23.428 42.810,24.128 38.470,24.968 C39.030,25.948 39.380,26.719 39.450,26.859 L40.290,28.469 C42.810,33.369 46.451,39.110 50.721,44.920 L42.600,48.631 C40.850,47.021 39.730,46.321 37.770,45.621 C34.619,44.570 30.909,44.010 26.709,44.010 C17.188,44.010 11.587,46.881 11.587,51.781 C11.587,56.332 16.768,58.852 26.289,58.852 C33.709,58.852 41.900,57.032 47.361,54.231 L48.481,63.192 C47.291,63.542 41.620,65.083 40.710,65.293 C36.510,66.343 31.049,66.903 26.008,66.903 C17.328,66.903 10.327,64.943 6.826,61.582 C4.166,59.062 2.696,55.632 2.696,52.131 C2.696,48.141 4.516,44.430 7.737,41.700 C11.797,38.340 17.608,36.730 25.588,36.730 C30.209,36.730 34.199,37.430 37.700,38.760 C35.109,35.329 33.919,33.299 30.139,26.018 C22.438,27.069 18.028,27.349 5.286,27.769 C3.326,27.839 3.326,27.839 2.206,27.979 L1.576,19.578 C3.676,19.858 5.496,19.928 8.367,19.928 C13.617,19.928 22.928,19.298 27.269,18.668 C27.059,18.038 25.238,13.487 25.028,13.067 L23.838,10.337 L23.068,8.237 C22.998,8.167 22.858,7.957 22.718,7.607 L31.749,6.486 C32.099,8.587 32.799,10.687 35.599,17.688 C43.300,16.287 44.000,16.147 47.991,14.957 C46.521,12.437 44.630,9.917 42.320,7.467 L47.221,5.016 C50.301,8.307 52.191,10.967 54.571,15.307 L51.701,16.848 Z" /><path fill="#222" d="M216.530,133.233 C218.391,134.061 222.217,135.095 228.008,136.335 C234.791,137.743 239.652,139.066 242.590,140.307 C245.525,141.548 247.843,142.975 249.539,144.588 C251.234,146.201 252.537,148.125 253.448,150.358 C254.358,152.592 254.813,155.198 254.813,158.176 C254.813,165.126 252.248,170.443 247.119,174.123 C241.989,177.805 234.419,179.645 224.410,179.645 C215.308,179.645 208.194,178.032 203.065,174.805 C197.935,171.579 194.627,166.698 193.137,160.162 L207.408,157.804 C208.401,161.527 210.303,164.257 213.117,165.995 C215.928,167.732 219.859,168.601 224.906,168.601 C235.247,168.601 240.418,165.417 240.418,159.045 C240.418,157.060 239.817,155.406 238.619,154.081 C237.418,152.759 235.743,151.661 233.593,150.793 C231.441,149.924 227.305,148.869 221.183,147.628 C215.888,146.387 212.186,145.395 210.077,144.650 C207.967,143.905 206.084,143.017 204.430,141.982 C202.774,140.948 201.347,139.729 200.149,138.321 C198.949,136.915 198.039,135.240 197.419,133.295 C196.798,131.352 196.488,129.097 196.488,126.532 C196.488,120.162 198.887,115.260 203.686,111.826 C208.483,108.394 215.475,106.676 224.658,106.676 C233.426,106.676 240.025,108.063 244.451,110.834 C248.876,113.606 251.711,118.177 252.952,124.546 L238.557,126.408 C237.812,123.348 236.323,121.052 234.089,119.520 C231.855,117.991 228.629,117.225 224.410,117.225 C215.391,117.225 210.883,120.038 210.883,125.663 C210.883,127.484 211.358,128.994 212.310,130.193 C213.260,131.393 214.668,132.407 216.530,133.233 ZM143.873,178.652 L134.317,137.701 C133.158,132.903 132.165,127.856 131.339,122.561 C130.511,126.947 129.850,130.276 129.353,132.551 C128.857,134.827 125.299,150.194 118.681,178.652 L101.059,178.652 L82.817,107.793 L97.833,107.793 L108.133,153.585 L110.367,164.629 C111.276,159.997 112.185,155.551 113.097,151.289 C114.006,147.029 117.357,132.531 123.148,107.793 L139.777,107.793 L148.712,145.519 C149.457,148.332 150.655,154.702 152.311,164.629 L153.552,158.797 L156.282,147.256 L164.721,107.793 L179.861,107.793 L161.494,178.652 L143.873,178.652 ZM48.815,160.534 L21.762,160.534 L15.434,178.652 L0.666,178.652 L26.478,107.793 L43.976,107.793 L69.788,178.652 L55.020,178.652 L48.815,160.534 ZM38.391,129.014 L36.282,122.188 L35.165,118.714 L34.917,119.831 C34.585,121.072 34.191,122.458 33.738,123.988 C33.282,125.520 30.407,133.978 25.113,149.366 L45.465,149.366 L38.391,129.014 Z" /></svg>
