<svg xmlns="http://www.w3.org/2000/svg" viewBox="0 0 36 28"><title>logo</title><path d="M7,2.25a2.55,2.55,0,0,1,.6-.18.54.54,0,0,1,.5.57.49.49,0,0,1-.36.48,19.91,19.91,0,0,1-2,.56A12.93,12.93,0,0,0,7.19,6.07c.35.4.6.67.88,1s.32.37.32.57a.54.54,0,0,1-.53.54,1,1,0,0,1-.58-.26,5.68,5.68,0,0,0-3.15-1c-1.43,0-2.37.52-2.37,1.48C1.76,10,4.36,10,5,10A10.67,10.67,0,0,0,6.16,10l.53,0a.5.5,0,0,1,.52.54c0,.63-.68.63-1.55.63-1,0-4.93,0-4.93-2.73C.73,7,1.94,6,4,6a6.9,6.9,0,0,1,2.16.34A19.88,19.88,0,0,1,4.67,3.9a23,23,0,0,1-3.38.3C.67,4.2.4,4,.4,3.61A.5.5,0,0,1,1,3.09h.78a16.22,16.22,0,0,0,2.47-.18,9,9,0,0,1-.74-1.87A.54.54,0,0,1,4.06.57a.53.53,0,0,1,.51.37c.18.5.45,1.3.66,1.78A14.73,14.73,0,0,0,7,2.25ZM8.49.84a3.81,3.81,0,0,1,.73,1.24.44.44,0,0,1-.46.42.41.41,0,0,1-.36-.25,8.54,8.54,0,0,0-.57-.86C7.68,1.2,7.62,1.1,7.62,1A.42.42,0,0,1,8.07.56C8.28.56,8.37.67,8.49.84ZM9.75.19c.23.29.78,1,.78,1.29a.44.44,0,0,1-.43.41c-.22,0-.3-.11-.44-.32A8.81,8.81,0,0,0,9.09.73C9,.57,8.93.5,8.93.37A.43.43,0,0,1,9.35,0,.49.49,0,0,1,9.75.19Z"/><path d="M16.7,7.61c0,2.67-3.48,3.15-4.08,3.15-.34,0-.52-.2-.52-.44s.14-.37.42-.41a6.41,6.41,0,0,0,2.15-.54,2,2,0,0,0,1.19-1.75,1.47,1.47,0,0,0-1.65-1.51,14.53,14.53,0,0,0-3.49.71,1.49,1.49,0,0,1-.46.12.41.41,0,0,1-.38-.45c0-.39.13-.45,1.9-.83a12,12,0,0,1,2.41-.34A2.25,2.25,0,0,1,16.7,7.61Z"/><path d="M24.05,1.2c0,.85-3.19,3.8-3.67,4.22-.22.19-.32.27-.32.35s.16.24.35.38a24.8,24.8,0,0,1,3.65,3.72c.27.36.37.49.37.74a.64.64,0,0,1-.62.59c-.2,0-.35-.08-.53-.37A19.41,19.41,0,0,0,19.45,6.7c-.39-.33-.56-.57-.56-.86A1.17,1.17,0,0,1,19.3,5c.3-.29.63-.58,1-.9a17.66,17.66,0,0,0,2.58-3c.21-.36.33-.48.57-.48a.62.62,0,0,1,.62.56Z"/><path d="M29.68,4.45c.1-.34.22-.46.44-.46a.53.53,0,0,1,.55.51,9.81,9.81,0,0,1-1,2.5c-.42.79-.61.92-.9.92s-.58-.44-.64-.79a11.22,11.22,0,0,1-.2-2.34,19.76,19.76,0,0,1,.14-2.31c.18-1.67.34-1.85.75-1.85a.49.49,0,0,1,.55.47c0,.14-.25,1.45-.3,1.73A20.77,20.77,0,0,0,28.93,5,6.64,6.64,0,0,0,29,6.1,10,10,0,0,0,29.68,4.45Zm4.94-2.13c0,.71.05,1.49.05,2.18,0,1.57,0,3.69-1.56,5.27a4.91,4.91,0,0,1-2.48,1.42.59.59,0,0,1-.54-.63.47.47,0,0,1,.37-.46c2.57-.88,3.09-2.72,3.09-5.34,0-1.26-.07-2.42-.14-3.13a5.28,5.28,0,0,1-.06-.55.51.51,0,0,1,.57-.52C34.53.56,34.54,1,34.62,2.32Z"/><path d="M9.55,27.58H8.5a.49.49,0,0,1-.3-.09A.7.7,0,0,1,8,27.25L7.1,24.83H2.6l-.94,2.42a.63.63,0,0,1-.17.23.48.48,0,0,1-.29.1h-1l4-10H5.54ZM3,23.85H6.72L5.14,19.77a8.83,8.83,0,0,1-.3-.94c0,.19-.1.36-.15.52a4.38,4.38,0,0,1-.14.43Z"/><path d="M11.79,17.54h1.13a.49.49,0,0,1,.3.1.42.42,0,0,1,.16.23l2.07,7a3.44,3.44,0,0,1,.11.41c0,.14.06.29.08.45,0-.16.07-.31.1-.46a3.26,3.26,0,0,1,.11-.4l2.36-7a.51.51,0,0,1,.17-.22.44.44,0,0,1,.29-.11h.4a.5.5,0,0,1,.46.33l2.34,7a6.5,6.5,0,0,1,.23.83c0-.15,0-.3.07-.44a3.69,3.69,0,0,1,.1-.39l2.07-7a.51.51,0,0,1,.16-.23.49.49,0,0,1,.3-.1h1.06l-3.13,10H21.51L19,19.92a3.88,3.88,0,0,1-.14-.5c0,.09,0,.18-.07.27s0,.17-.06.23l-2.56,7.66H14.92Z"/><path d="M34.56,19.11a.45.45,0,0,1-.14.16.24.24,0,0,1-.18.05A.45.45,0,0,1,34,19.2l-.4-.26a4,4,0,0,0-.58-.26,2.51,2.51,0,0,0-.83-.12,2.45,2.45,0,0,0-.8.12,1.79,1.79,0,0,0-.59.34,1.42,1.42,0,0,0-.35.49,1.54,1.54,0,0,0-.12.61,1.14,1.14,0,0,0,.21.7,1.91,1.91,0,0,0,.54.47,5,5,0,0,0,.77.34l.89.3c.3.1.59.22.88.34a3.06,3.06,0,0,1,.77.49,2.27,2.27,0,0,1,.54.72,2.4,2.4,0,0,1,.21,1.05,3.41,3.41,0,0,1-.22,1.24,2.82,2.82,0,0,1-.66,1,2.91,2.91,0,0,1-1,.67,3.8,3.8,0,0,1-1.43.25A4.24,4.24,0,0,1,30,27.33a4.06,4.06,0,0,1-1.37-.95l.39-.64a.35.35,0,0,1,.14-.13.27.27,0,0,1,.17-.06.61.61,0,0,1,.34.16,5.75,5.75,0,0,0,.47.35,3.7,3.7,0,0,0,.69.34,2.61,2.61,0,0,0,1,.16,2.55,2.55,0,0,0,.86-.13,1.76,1.76,0,0,0,.64-.38,1.66,1.66,0,0,0,.41-.57,2,2,0,0,0,.14-.75,1.26,1.26,0,0,0-.21-.75,1.79,1.79,0,0,0-.54-.48,3.38,3.38,0,0,0-.77-.34l-.88-.28a6.63,6.63,0,0,1-.88-.33,2.89,2.89,0,0,1-.77-.49,2.33,2.33,0,0,1-.54-.75A2.67,2.67,0,0,1,29,20.19a2.64,2.64,0,0,1,.21-1,2.75,2.75,0,0,1,.6-.88,2.89,2.89,0,0,1,1-.62,3.58,3.58,0,0,1,1.32-.23,4.26,4.26,0,0,1,1.54.27,3.57,3.57,0,0,1,1.21.77Z"/></svg>