<svg xmlns="http://www.w3.org/2000/svg" viewBox="0 0 210 34"><title>ざっくりAWS</title><path d="M.6,32,5,19.4H18.33l-2-8.56H3l.81-1.59H16L14.38,2.19H20L21.6,9.25H31l-.77,1.59H22l2,8.56L23.2,21H9.63L6.34,30.46H21.89L21.12,32Zm25-24.37,2.31-6.3h1.55L27.1,7.67Zm2.81,0,2.35-6.3h2.59L31,7.67Z"/><path d="M33.15,31.47,33.87,30H45.46L51,19.51l.45-5.29H35.29l.8-1.51H56.28l-.56,6.73-6.27,12Z"/><path d="M71.55,32.44l-8-14,1.61-4.54L81.24,4.17h9.82l-.88,1.59H87L70,16l-.69,1.65,9.24,14.84Z"/><path d="M93.63,21.13,98.89,3.78H104L99.3,19.55h4.21l-.78,1.58Zm3.85,11.45,11.61-11.91,5.09-16.89h5.26l-5.45,18L103.74,32.58Z"/><path d="M137.94,32l-.45-11.2h-10L121.09,32h-5.76L131.74,4H142.1l1.74,28Zm-1-26.17h-1L128.5,19h8.93Z"/><path d="M165.84,32l-.29-18.29L153.92,32h-5.25l6.58-28h5.29L155.22,26.5l9.6-14.69h2.55l.33,15.66L177.17,4h5.29l-11.4,28Z"/><path d="M179.59,32l2.52-8.5h5.55l-1.94,6.63h10.87l3.55-12H183.76L188.3,4h21L207,11.77h-5.48l1.83-5.87H193.11l-3.29,10.44H206L201.55,32Z"/></svg>