<svg xmlns="http://www.w3.org/2000/svg" viewBox="0 0 206 32"><title>ざっくりAWS</title><path d="M2.29,31,4.2,18.41H17.55L13.91,9.84H.52L1,8.26H13.27l-3-7.06h5.58l3,7.06h9.43l-.47,1.58H19.53l3.67,8.57L22.73,20H9.16L7.72,29.46H23.27L22.81,31ZM22.52,6.67,23.6.37h1.55L24,6.67Zm2.8,0L26.44.37H29l-1.11,6.3Z"/><path d="M34.72,30.47,35.16,29H46.75l3.52-10.44-.57-5.29H33.5l.5-1.51H54.2L55,18.44,51,30.47Z"/><path d="M73.31,31.44l-10.72-14,.72-4.54L77.49,3.18h9.83l-.58,1.58H83.57L68.53,15l-.36,1.66L80.3,31.44Z"/><path d="M93.19,20.13,95.06,2.78h5.15L98.55,18.55h4.21l-.46,1.58Zm6.08,11.45,9.29-11.91,1.8-16.89h5.25l-1.94,18-8.13,10.83Z"/><path d="M139.63,31,137,19.85H127L122.78,31H117L128,3h10.37l7.2,28ZM133.51,4.87h-1L127.64,18h8.93Z"/><path d="M167.53,31l-3.86-18.28L155.61,31h-5.25l1.11-28h5.29l-.93,22.46,6.73-14.69h2.56l3.38,15.66L173.39,3h5.3l-5.94,28Z"/><path d="M181.28,31l.87-8.49h5.54L187,29.17h10.87l1.23-12H182.76L184.52,3h21l-.76,7.74h-5.47L200,4.91H189.7l-1.26,10.44h16.2L203.24,31Z"/></svg>