<svg data-name="Layer 1" xmlns="http://www.w3.org/2000/svg" viewBox="0 0 100 100"><title>SES</title><path fill="#876929" d="M31.4 21.96L14.7 48.55l16.7 26.59 13.34-3.42.66-46.17-14-3.59z"/><path fill="#d9a741" d="M50.05 70.36L31.4 75.14V21.96l18.65 4.78v43.62z"/><path fill="#876929" d="M47.83 31.08l2.22 60.08L85.3 73.53l-.01-44.88-8.99 1.49-28.47.94z"/><path fill="#876929" d="M61.28 42.95l11-.65 10.87-19.72L55.66 8.84 45.4 13.33l15.88 29.62z"/><path fill="#d9a741" d="M55.66 8.84l27.49 13.74L72.28 42.3 55.66 8.84z"/><path fill="#876929" d="M50.05 14.54l22.23 40.34 3.82 23.25-26.05 13.03-10.55-5.28V18.76l10.54-4.22h.01z"/><path fill="#d9a741" d="M85.29 28.65l.01 44.88-35.25 17.63V14.54l22.23 40.34 13.01-26.23z"/></svg>