<svg data-name="Layer 1" xmlns="http://www.w3.org/2000/svg" viewBox="0 0 100 100"><title>SNS</title><path fill="#b8852e" d="M42.2 77.81l-7.09-1.98-6.7-7.64 7.47.62 6.32 9z"/><path fill="#d9a741" d="M42.2 77.81l5.07-10.62-4.74-.67-6.65 2.29 6.32 9z"/><path fill="#b8852e" d="M25.81 72.78l-3.98-1.12-4.39-5.01 4.66.73 3.71 5.4z"/><path fill="#d9a741" d="M25.81 72.78l2.86-5.98-2.67-.38-3.9.96 3.71 5.4z"/><path fill="#876929" d="M15.7 66.82l4.07.83 19.94-17.34-19.94-19.42-4.07 2.05v33.88z"/><path fill="#d9a741" d="M35.51 34.31v31.88l-15.74 1.46V30.89l15.74 3.42z"/><path fill="#876929" d="M24.8 68.73l6.98 1.41 19.28-22.33-19.28-22.99-6.98 3.53v40.38z"/><path fill="#d9a741" d="M71.64 37.48v27.53l-39.86 5.13V24.82l39.86 12.66z"/><path fill="#b8852e" d="M64.43 84.37l-10.07-2.82-9.52-10.86 10.62.89 8.97 12.79z"/><path fill="#d9a741" d="M64.43 84.37l7.21-15.09-6.74-.96-9.44 3.26 8.97 12.79z"/><path fill="#876929" d="M39.71 71.63l10.27 1.98 13.93-28.99-13.93-28.99-10.27 5.19v50.81z"/><path fill="#d9a741" d="M49.98 73.61l34.32-6.87V32.79L49.98 15.63v57.98z"/></svg>