<svg data-name="Layer 1" xmlns="http://www.w3.org/2000/svg" viewBox="0 0 100 100"><title>SQS</title><path fill="#876929" d="M15.9 35.53l.02 38.59L50 91.16l34.08-17.04v-9.64L55.1 60.87l.02-21.74 28.98-3.59v-9.65L50 8.84 15.9 25.88v9.65z"/><path fill="#876929" d="M15.92 64.47L50 74.7v16.46L15.92 74.12v-9.65z"/><path fill="#876929" d="M20.25 76.29l-4.35-2.18V25.88l4.36-2.17-.01 52.58z"/><path fill="#d9a741" d="M55.12 60.87l-34.87 4.9.01-31.55 34.86 4.91v21.74zM84.1 35.54L50 25.3V8.84l34.1 17.05v9.65zM84.08 64.48L50 74.7v16.46l34.08-17.04v-9.64z"/><path fill="#876929" d="M37.44 58.83L50 60.4V39.52l-12.56 1.59v17.72zM24.79 57.27l8.15 1.01V41.69l-8.15 1.03v14.55z"/><path fill="#624a1e" d="M20.26 34.22L50 25.3l34.1 10.24-28.98 3.59-34.86-4.91z"/><path fill="#fad791" d="M20.25 65.77L50 74.7l34.08-10.22-28.96-3.61-34.87 4.9z"/><path fill="#d9a741" d="M84.08 56.09L50 60.4V39.52l34.08 4.34v12.23z"/></svg>