<svg xmlns="http://www.w3.org/2000/svg" viewBox="0 0 100 100"><title>VPC</title><path fill="#fbbf93" d="M60.81 55.73l-10.77-.66-33.96 2.18 9.58 21.63 35.15-23.15z"/><path fill="#9d5025" d="M25.53 21.21l-9.45 4.77V50h9.45L38.9 37.88 25.53 21.21z"/><path fill="#f58536" d="M60.81 55.73l-35.15 2.93v20.22l35.15-9.57V55.73zM42.66 50H25.53V21.21l17.13 4.64V50z"/><path fill="#9d5025" d="M67.28 49.98l12.3.02V26.39l-12.3 2.04v21.55z"/><path fill="#6b3a19" d="M43.2 30.81L54.27 19.7l25.31 14.59-12.3 1.73-24.08-5.21z"/><path fill="#9d5025" d="M31.88 50h18.08l9.48-18.96L49.96 9l-18.08 9.04V50z"/><path fill="#f58536" d="M49.96 9v41h10.16V28.45l19.46 5.84V50h4.34V25.98L49.96 9z"/><path fill="#9d5025" d="M16.08 57.25l9.58 1.41v20.22l-9.58-4.78V57.25z"/><path fill="#fbbf93" d="M83.92 57.16l-16.33-1.01-35.71 3.46L49.96 91l33.96-33.84z"/><path fill="#f58536" d="M83.92 57.16l-33.96 5.09V91l33.96-16.98V57.16z"/><path fill="#9d5025" d="M31.88 59.61l18.08 2.64V91l-18.08-9.02V59.61z"/></svg>