<svg xmlns="http://www.w3.org/2000/svg" width="279.16" height="83.6" viewBox="0 0 279.16 83.6">
  <title>logo</title>
  <g>
    <path d="M17.48,22.648H4.788L1.1,31.54H.456L10.792,6.46h.684L21.812,31.54h-.646Zm-.228-.532L11.78,8.892l-.646-1.748-.646,1.71L5.016,22.116Z"/>
    <path d="M34.124,31.54h-.8L25.042,6.46h.646l8.056,24.472L41.04,6.46h.8l7.3,24.472L57.19,6.46h.646L49.552,31.54h-.8L41.458,7.3H41.42L39.9,12.464Z"/>
    <path d="M82.5,11.894l-.494.38Q80.522,6.613,73.34,6.612a10.984,10.984,0,0,0-4.37.817,6.814,6.814,0,0,0-2.926,2.242,5.3,5.3,0,0,0-1.026,3.173,4.536,4.536,0,0,0,.836,2.793,6.4,6.4,0,0,0,2.812,1.919,27.968,27.968,0,0,0,5.472,1.406,24.78,24.78,0,0,1,5.168,1.387A6.219,6.219,0,0,1,82.1,22.4a5.626,5.626,0,0,1-.3,6.4,7.469,7.469,0,0,1-3.211,2.3,14.438,14.438,0,0,1-11.533-.855,7.082,7.082,0,0,1-3.325-5.016l.57-.3a6.606,6.606,0,0,0,3.1,4.826,11.962,11.962,0,0,0,6.479,1.634,10.858,10.858,0,0,0,6.061-1.577,4.934,4.934,0,0,0,2.413-4.351A4.4,4.4,0,0,0,80.465,21.7q-1.881-1.368-6.441-2.128a27.718,27.718,0,0,1-5.738-1.463A6.624,6.624,0,0,1,65.3,16a5.3,5.3,0,0,1-.893-3.154,5.721,5.721,0,0,1,1.083-3.363,7.528,7.528,0,0,1,3.116-2.47A11.27,11.27,0,0,1,73.34,6.08Q80.788,6.08,82.5,11.894Z"/>
    <path d="M98.222,28.52q-1.792,0-3.276-2.268a9.955,9.955,0,0,1-1.484-5.572,10.69,10.69,0,0,1,3.514-8.274A12.957,12.957,0,0,1,106.062,9.2a10.377,10.377,0,0,1,7.434,2.772A9.267,9.267,0,0,1,116.422,19a11.233,11.233,0,0,1-2.156,7.126,8.436,8.436,0,0,1-5.908,3.206q-.336.055-.336-.252a.268.268,0,0,1,.252-.308,7.833,7.833,0,0,0,5.544-3.01A10.67,10.67,0,0,0,115.862,19a8.719,8.719,0,0,0-2.772-6.622,9.829,9.829,0,0,0-7.028-2.618H105.7c-.168,0-.252.075-.252.224a76.082,76.082,0,0,1-1.05,7.784,40.5,40.5,0,0,1-1.358,5.362,13.535,13.535,0,0,1-1.568,3.248,5.685,5.685,0,0,1-1.638,1.694A3.155,3.155,0,0,1,98.222,28.52Zm6.468-18.7A11.765,11.765,0,0,0,96.962,13.2a10.249,10.249,0,0,0-2.94,7.476A9.292,9.292,0,0,0,95.38,25.9q1.358,2.058,2.842,2.058a2.272,2.272,0,0,0,1.05-.266,5.128,5.128,0,0,0,1.176-.91,6.773,6.773,0,0,0,1.274-1.96,25.679,25.679,0,0,0,1.2-3.206,40.071,40.071,0,0,0,1.106-4.858q.517-2.967.854-6.72C104.886,9.891,104.82,9.816,104.69,9.816Z"/>
    <path d="M126.054,27.176a.283.283,0,0,1-.476-.308,37.431,37.431,0,0,0,4.788-10.444c.037-.149-.019-.224-.168-.224h-3.976a.28.28,0,0,1,0-.56h4.228a.223.223,0,0,0,.252-.252V6.96a.28.28,0,0,1,.56,0v8.428a.223.223,0,0,0,.252.252h3.948a.28.28,0,1,1,0,.56h-3.78c-.15,0-.187.075-.112.224q1.9,3.64,3.444,6.8c.074.206.037.336-.112.392q-.28.113-.364-.112-1.233-2.575-3.164-6.216a.1.1,0,0,0-.07-.028c-.028,0-.042.019-.042.056V31.04a.28.28,0,0,1-.56,0V17.572c0-.018-.014-.028-.042-.028s-.042.01-.042.028A37.96,37.96,0,0,1,126.054,27.176Zm2.6-12.8q-1.26-3.331-2.408-5.656c-.075-.186-.038-.308.112-.364.186-.074.308-.037.364.112q1.315,2.661,2.464,5.684c.074.168.018.29-.168.364A.243.243,0,0,1,128.658,14.38Zm4.284.14a.254.254,0,0,1-.112-.392A34.039,34.039,0,0,0,135.238,8.3c.074-.205.2-.28.364-.224.2.038.271.149.2.336a33.8,33.8,0,0,1-2.492,5.992Q133.193,14.689,132.942,14.52Zm1.96,10.92a.252.252,0,0,1,.224-.336l12.432-2.268a.264.264,0,0,0,.224-.28V6.96a.28.28,0,1,1,.56,0V22.444c0,.168.075.234.224.2l2.8-.5a.286.286,0,1,1,.112.56l-2.912.532a.266.266,0,0,0-.224.28V31.04a.28.28,0,1,1-.56,0V23.592c0-.168-.075-.233-.224-.2l-12.32,2.268A.252.252,0,0,1,134.9,25.44Zm7.868-4.788a72.262,72.262,0,0,0-5.208-5.18.245.245,0,0,1,0-.392q.224-.224.392-.028a62.952,62.952,0,0,1,5.236,5.236q.195.168-.028.392Q142.994,20.848,142.77,20.652Zm2.24-6.3q-2.212-2.465-5.04-5.04-.225-.223-.028-.392c.13-.13.252-.14.364-.028a69.911,69.911,0,0,1,5.124,5.1.237.237,0,0,1-.028.392C145.29,14.511,145.159,14.5,145.01,14.352Z"/>
    <path d="M160.186,14.632a.254.254,0,0,1-.392-.112.266.266,0,0,1,.14-.392A67.226,67.226,0,0,0,171.582,6.9a1.12,1.12,0,0,1,1.344,0,67.188,67.188,0,0,0,11.648,7.224q.279.168.14.392a.254.254,0,0,1-.392.112,67.02,67.02,0,0,1-11.9-7.392.282.282,0,0,0-.336,0A67.056,67.056,0,0,1,160.186,14.632Zm.448,15.428a.247.247,0,0,1,.28-.28h10.808a.223.223,0,0,0,.252-.252V19.784c0-.149-.084-.224-.252-.224h-9.688a.28.28,0,0,1,0-.56h9.688a.223.223,0,0,0,.252-.252V13.9c0-.149-.084-.224-.252-.224h-6.748a.28.28,0,0,1,0-.56h14.56a.28.28,0,1,1,0,.56h-6.748c-.168,0-.252.075-.252.224v4.844a.223.223,0,0,0,.252.252h9.688a.28.28,0,1,1,0,.56h-9.688c-.168,0-.252.075-.252.224v9.744a.223.223,0,0,0,.252.252h10.808a.28.28,0,1,1,0,.56h-22.68A.247.247,0,0,1,160.634,30.06Zm7.56-2.52c-.15.094-.28.047-.392-.14a52.706,52.706,0,0,0-3.024-5.348c-.112-.168-.093-.3.056-.392a.26.26,0,0,1,.392.084,55.8,55.8,0,0,1,3.108,5.432A.243.243,0,0,1,168.194,27.54Zm10.948-5.88a.276.276,0,0,1,.392-.14c.149.056.187.187.112.392a47.949,47.949,0,0,1-3.08,5.4.258.258,0,0,1-.392.084c-.15-.093-.168-.233-.056-.42A55.231,55.231,0,0,0,179.142,21.66Z"/>
    <path d="M195.1,10.88a.28.28,0,0,1,0-.56h5.852a.326.326,0,0,0,.336-.224q.279-.615,1.288-3.248c.074-.186.2-.243.364-.168q.279.113.168.364-.786,2.073-1.233,3.08c-.074.131-.027.2.141.2h12.124a.28.28,0,0,1,0,.56H201.793a.347.347,0,0,0-.363.224,70.945,70.945,0,0,1-3.528,6.8v.056h.056q3.442-3.444,6.383-3.444a3.174,3.174,0,0,1,2.283.84,5.451,5.451,0,0,1,1.33,2.716c.037.168.13.234.28.2a64.44,64.44,0,0,1,6.439-1.2q.252-.056.309.252.056.252-.225.308-3.358.477-6.412,1.2c-.168.038-.233.131-.195.28a38.733,38.733,0,0,1,.392,6.048.248.248,0,0,1-.281.28c-.186,0-.279-.1-.279-.308a39.811,39.811,0,0,0-.364-5.908c-.038-.13-.131-.177-.281-.14q-8.316,2.213-8.316,6.076a3.809,3.809,0,0,0,.309,1.6,3.461,3.461,0,0,0,1.19,1.3,6.976,6.976,0,0,0,2.758.966,27.37,27.37,0,0,0,4.7.336,37.717,37.717,0,0,0,6.412-.5q.252-.056.308.224c.037.168-.037.271-.224.308a38.432,38.432,0,0,1-6.5.532q-4.984,0-7.252-1.134a3.79,3.79,0,0,1-2.268-3.626q0-4.311,8.791-6.636c.131-.018.178-.121.141-.308a4.874,4.874,0,0,0-1.162-2.45,2.678,2.678,0,0,0-1.891-.686q-4.143,0-8.875,6.664c-.112.15-.234.168-.364.056q-.225-.168-.084-.364A63.018,63.018,0,0,0,200.841,11.1c.076-.149.029-.224-.139-.224Z"/>
    <path d="M227.61,29.752a62.306,62.306,0,0,0-5.433-5.432q-.195-.224-.027-.392.224-.224.392-.028a63.727,63.727,0,0,1,5.488,5.488.246.246,0,0,1,0,.392C227.9,29.911,227.759,29.9,227.61,29.752Z"/>
    <path d="M5.04,76.04a.248.248,0,0,1-.28-.28V54.4a1.626,1.626,0,0,1,1.6-1.6H21.644a1.626,1.626,0,0,1,1.6,1.6V75.76a.28.28,0,0,1-.56,0V74.332c0-.168-.075-.252-.224-.252H5.572a.223.223,0,0,0-.252.252V75.76A.248.248,0,0,1,5.04,76.04Zm.28-22.428v9.044c0,.15.084.224.252.224H22.456a.2.2,0,0,0,.224-.224V53.612c0-.168-.075-.252-.224-.252H5.572A.223.223,0,0,0,5.32,53.612Zm0,10.08v9.6c0,.15.084.224.252.224H22.456a.2.2,0,0,0,.224-.224v-9.6c0-.168-.075-.252-.224-.252H5.572A.223.223,0,0,0,5.32,63.692Z"/>
    <path d="M35.28,72.288q-.168.168-.392-.028a.258.258,0,0,1,.028-.392A51.209,51.209,0,0,0,46.7,57.224a.111.111,0,0,0,.014-.14A.135.135,0,0,0,46.592,57H35.728a.28.28,0,0,1,0-.56H47.236a.223.223,0,0,0,.252-.252V51.68a.28.28,0,0,1,.56,0v4.508a.223.223,0,0,0,.252.252H59.808a.28.28,0,0,1,0,.56H48.944a.135.135,0,0,0-.126.084.11.11,0,0,0,.014.14A51.209,51.209,0,0,0,60.62,71.868a.258.258,0,0,1,.028.392q-.224.2-.392.028A51.842,51.842,0,0,1,48.1,57.028.025.025,0,0,0,48.076,57l-.028.028v13.16a.223.223,0,0,0,.252.252h6.468a.28.28,0,0,1,0,.56H48.3a.223.223,0,0,0-.252.252V76.32a.28.28,0,0,1-.56,0V71.252A.223.223,0,0,0,47.236,71H40.768a.28.28,0,0,1,0-.56h6.468a.223.223,0,0,0,.252-.252V57.028L47.46,57a.025.025,0,0,0-.028.028A51.859,51.859,0,0,1,35.28,72.288Z"/>
    <path d="M70.7,75.34a.247.247,0,0,1-.28-.279V54.536a1.626,1.626,0,0,1,1.6-1.6H90.384a1.626,1.626,0,0,1,1.6,1.6v18a3.244,3.244,0,0,1-.434,2.086,3.243,3.243,0,0,1-2.086.435q-.391,0-3.948-.141c-.168,0-.252-.094-.252-.279a.249.249,0,0,1,.28-.282q3.5.141,3.92.141a2.931,2.931,0,0,0,1.68-.279,2.919,2.919,0,0,0,.28-1.681V63.552a.223.223,0,0,0-.252-.252H71.232a.223.223,0,0,0-.252.252V75.061A.247.247,0,0,1,70.7,75.34Zm.28-21.588v8.736a.223.223,0,0,0,.252.252H80.7c.149,0,.224-.084.224-.252V53.752c0-.168-.075-.252-.224-.252H71.232A.223.223,0,0,0,70.98,53.752Zm10.5,0v8.736a.223.223,0,0,0,.252.252h9.436a.223.223,0,0,0,.252-.252V53.752a.223.223,0,0,0-.252-.252H81.732A.223.223,0,0,0,81.48,53.752Z"/>
    <path d="M103.292,55.656c-.168,0-.252-.093-.252-.28a.248.248,0,0,1,.28-.28q10.164,0,21.84-.588a.248.248,0,0,1,.28.28c0,.206-.084.308-.252.308q-7.029.588-11.228,3.738a9.51,9.51,0,0,0-4.2,7.882,7.533,7.533,0,0,0,2.408,5.894,9.422,9.422,0,0,0,6.552,2.17,21.351,21.351,0,0,0,3.332-.252c.168-.038.27.046.308.252q.056.252-.224.308a22.28,22.28,0,0,1-3.416.252,10,10,0,0,1-6.958-2.31,8.072,8.072,0,0,1-2.562-6.314,9.7,9.7,0,0,1,3-7.07,17.272,17.272,0,0,1,8.232-4.326.025.025,0,0,0,.028-.028.025.025,0,0,0-.028-.028Q110.375,55.657,103.292,55.656Zm17.444,3.92a.26.26,0,0,1,.392.084q1.287,1.989,2.52,4.2.139.225-.112.364a.254.254,0,0,1-.392-.112q-1.344-2.407-2.492-4.144A.258.258,0,0,1,120.736,59.576Zm3.472-1.176a.26.26,0,0,1,.392.084q1.232,1.877,2.6,4.284a.259.259,0,0,1-.084.392c-.15.094-.28.047-.392-.14q-1.065-1.9-2.6-4.228A.258.258,0,0,1,124.208,58.4Z"/>
    <path d="M137.48,57.42a.28.28,0,1,1,0-.56q6.216,0,13.552-.224a.2.2,0,0,0,.154-.084.172.172,0,0,0,.042-.168q-.364-1.988-.56-3.808-.057-.336.252-.336c.205,0,.308.075.308.224a36.373,36.373,0,0,0,.56,3.892q.055.252.252.252,2.379-.084,6.72-.308a.248.248,0,0,1,.28.28c0,.206-.094.308-.28.308q-.084,0-6.608.252-.225,0-.168.252a23.712,23.712,0,0,0,3.5,8.2.277.277,0,0,1-.056.392.308.308,0,0,1-.42.056,13.872,13.872,0,0,0-3.864-1.694,16.29,16.29,0,0,0-4.424-.63,9.378,9.378,0,0,0-5.376,1.316,4.263,4.263,0,0,0-1.9,3.724q0,5.88,9.52,5.881a37.069,37.069,0,0,0,6.1-.5.252.252,0,0,1,.336.222c.037.188-.047.3-.252.337a37.925,37.925,0,0,1-6.188.5,19.463,19.463,0,0,1-5.068-.574,7.238,7.238,0,0,1-3.136-1.568,5.516,5.516,0,0,1-1.876-4.3,4.783,4.783,0,0,1,2.058-4.13,9.824,9.824,0,0,1,5.782-1.47,16.038,16.038,0,0,1,7.728,1.932h.056v-.056a24.837,24.837,0,0,1-3.08-7.644.243.243,0,0,0-.252-.2Q143.78,57.421,137.48,57.42ZM158,54.928q-.924-1.651-2.268-3.7a.283.283,0,1,1,.476-.308q1.316,1.989,2.3,3.724a.288.288,0,1,1-.5.28Zm1.6-4.564q1.344,2.073,2.352,3.836a.288.288,0,1,1-.5.28q-1.4-2.463-2.3-3.808c-.112-.168-.094-.3.056-.392A.26.26,0,0,1,159.6,50.364Z"/>
    <path d="M170.968,61.508c-.168.075-.29.01-.364-.2q-.084-.224.2-.336a38.229,38.229,0,0,1,9.436-1.736q8.343,0,8.344,7a6.578,6.578,0,0,1-3.542,5.978q-3.543,2.086-10.15,2.141c-.168,0-.252-.092-.252-.279s.1-.28.308-.28q6.44-.055,9.758-1.974a6.1,6.1,0,0,0,3.318-5.586q0-6.439-7.784-6.44A36.642,36.642,0,0,0,170.968,61.508Z"/>
    <path d="M203.952,66.1a14.927,14.927,0,0,1-1.905-1.47,1.639,1.639,0,0,1-.447-1.19,1.737,1.737,0,0,1,.489-1.26,17.125,17.125,0,0,1,2.227-1.68q5.544-3.807,10.892-8.316a.248.248,0,0,1,.392.056.256.256,0,0,1-.028.392q-5.6,4.677-10.948,8.316a17.978,17.978,0,0,0-2.058,1.526,1.319,1.319,0,0,0-.406.966,1.192,1.192,0,0,0,.35.882,15.05,15.05,0,0,0,1.75,1.3,124.081,124.081,0,0,1,12.18,9.744.246.246,0,0,1,0,.392q-.224.224-.393.028A122.467,122.467,0,0,0,203.952,66.1Z"/>
    <path d="M233.8,67.08a.247.247,0,0,1-.28-.28V53.36a.28.28,0,1,1,.56,0v10.5a.024.024,0,0,0,.028.028.025.025,0,0,0,.028-.028,15.853,15.853,0,0,1,4.115-7.35q2.913-2.869,5.909-2.87a5.268,5.268,0,0,1,4.564,2.24,11.011,11.011,0,0,1,1.6,6.44q0,6.384-3.487,9.464T236.04,74.92a.281.281,0,0,1,0-.561q7-.055,10.36-2.995t3.36-9.044a10.646,10.646,0,0,0-1.428-6.048A4.749,4.749,0,0,0,244.16,54.2q-3.3,0-6.412,3.71a16.112,16.112,0,0,0-3.64,8.946A.281.281,0,0,1,233.8,67.08Z"/>
    <path d="M268.491,74.612a3.921,3.921,0,1,1,1.148-2.772A3.78,3.78,0,0,1,268.491,74.612ZM268.1,69.46a3.381,3.381,0,1,0,.98,2.38A3.242,3.242,0,0,0,268.1,69.46Z"/>
  </g>
</svg>
