<svg xmlns="http://www.w3.org/2000/svg" width="240" height="34" viewBox="0 0 240 34"><g fill="#393939"><path d="M8.36 24a6.16 6.16 0 00-.28.67 14.81 14.81 0 01-2 3.79 30 30 0 013.05 2.87l-.27.27a28.24 28.24 0 00-3-2.86 14.78 14.78 0 01-4.93 4l-.31-.28a13.78 13.78 0 005-4A37.86 37.86 0 002.05 26l.22-.29c1.11.73 2.67 1.86 3.53 2.57a13.34 13.34 0 001.94-3.69 6.93 6.93 0 00.26-.72zM13.14 31.2c.34 0 .61.05 1 .05h7.49a6 6 0 00.86-.05v.47h-9.35zm1-6h7.31v.42h-7.31zM33.72 31.89h.72v.4h-8.32v-.42H31.74c.16-.84.63-4 .64-4.67H27.27v-.43a5.31 5.31 0 00.72.05h4.21a.68.68 0 00.3 0l.31.15a1 1 0 000 .24c-.1.92-.5 3.69-.66 4.68zM37.59 27.83a14 14 0 001.42.05h6.7a9.06 9.06 0 001.18-.05v.46H37.58zM54.14 23.45c0 .14 0 .26-.07.42s-.18 1.32-.36 2.15c.69-.06 1.34-.11 1.65-.11.86 0 1.73.27 1.73 1.77a11 11 0 01-.72 4.23 1.45 1.45 0 01-1.53.89 6.89 6.89 0 01-1.36-.18l-.06-.45a5.12 5.12 0 001.46.27 1.11 1.11 0 001.19-.71 11 11 0 00.63-4c0-1.23-.58-1.47-1.35-1.47-.39 0-1 .05-1.73.11a22.62 22.62 0 01-2.57 6.42l-.4-.17a20 20 0 002.59-6.21l-2 .18-.82.09-.06-.48h.86c.4 0 1.24-.08 2.08-.15a13.43 13.43 0 00.35-2.64zm4.07 1.42a19.29 19.29 0 012.26 4.07l-.35.19a15.2 15.2 0 00-2.24-4.08zM65 29.32a5.72 5.72 0 014.2-1.73c1.55 0 2.78.91 2.78 2.27 0 2.07-2.06 3.3-6 3l-.11-.41c3.92.42 5.7-.87 5.7-2.61 0-1.11-1-1.88-2.41-1.88a5 5 0 00-4 1.75 1.53 1.53 0 00-.28.51l-.43-.1a41 41 0 00.61-4.66h.44c-.14.98-.35 3.01-.5 3.86zm1.1-5.77a30.32 30.32 0 004.44.91l-.1.39c-1-.15-3.56-.65-4.45-.9zM85 26.14c.43 0 .87-.05.87-.05v.45h-2.62v.44c0 3.42-.66 4.9-3.24 6.07l-.32-.31c2-.86 3.2-1.88 3.2-5.66v-.58h-4v3.17h-.39V26.5h-2.6v-.45s.68.05 1.1.05h1.58v-1.84a6.29 6.29 0 000-.66h.43v2.54h4V24.4a7.72 7.72 0 000-.85h.46a7.72 7.72 0 000 .85v1.74zM88.59 27.83a14 14 0 001.42.05h6.7a9.06 9.06 0 001.18-.05v.46H88.58zM102.52 31.18c0 .71.28.89.9 1a12.28 12.28 0 001.79.12 19.3 19.3 0 004-.36v.44a31.74 31.74 0 01-4 .25 12.49 12.49 0 01-1.82-.09c-.81-.15-1.23-.42-1.23-1.33v-6.65a2.85 2.85 0 00-.06-.7h.47a5.67 5.67 0 000 .7v3.15a30.38 30.38 0 005-1.58 5.75 5.75 0 00.8-.44l.21.4c-.23.1-.55.25-.88.37a42.56 42.56 0 01-5.11 1.66zm6.31-5.78a13.45 13.45 0 00-1-1.66l.32-.15a14.86 14.86 0 011 1.64zm.54-2.23a14 14 0 011 1.63l-.33.17a11.75 11.75 0 00-1-1.65zM121.63 24.75a1.73 1.73 0 00-.16.3 13.54 13.54 0 01-2.16 3.74 34.18 34.18 0 013.69 3.73l-.3.27a30.83 30.83 0 00-3.62-3.79 15.2 15.2 0 01-4.86 3.65l-.28-.31a13.85 13.85 0 005-3.68A12 12 0 00121.1 25h-6.28v-.46s.62.06 1 .06h5a2.67 2.67 0 00.56 0zM131.38 28.91c-1.28.67-2.36 1.43-2.36 2.41 0 1.2 1.27 1.3 2.56 1.3a24.14 24.14 0 003.11-.24v.41a28.53 28.53 0 01-3.13.19c-1.54 0-2.89-.28-2.89-1.63s1.27-2.05 2.67-2.8h.06v-.08c0-.62-.49-1-1.22-1a3.27 3.27 0 00-2.24.92c-.33.3-.68.73-1.07 1.17l-.36-.26a12.56 12.56 0 002.84-4h-.84c-.53 0-1.23 0-1.89-.06v-.42c.66.07 1.44.11 1.92.11h1a6.54 6.54 0 00.38-1.59h.4c-.09.39-.21 1-.4 1.53a27 27 0 003.88-.37v.4a32.32 32.32 0 01-4 .35v.08a8.67 8.67 0 01-1.41 2.37 3.48 3.48 0 011.94-.64 1.38 1.38 0 011.53 1.26c1-.5 2-.88 2.76-1.24.25-.11.42-.19.64-.31l.18.41a5.14 5.14 0 00-.68.25c-.82.32-1.85.73-2.9 1.26v2.44h-.42v-2.25zM140.66 31.41a4.26 4.26 0 003.54 1.51c1.21 0 3.92 0 5.15-.05a.86.86 0 00-.13.37c-1.2 0-3.78.06-5 0a4.7 4.7 0 01-3.72-1.53c-.57.57-1.17 1.14-1.76 1.68l-.25-.33c.54-.44 1.22-1.06 1.81-1.65v-3.6h-1.7v-.31h2.06zm.11-6.17a8.4 8.4 0 00-2-2l.26-.19a7.8 7.8 0 012 2zm8.52 4.88h-8v-.34h2.38v-1.49h-2v-.35h2v-1.1h.33v1.1h2.54v-1.1h.35v1.1h2v.35h-2v1.49h2.37zm-4.83-6.5h-2.85v-.35h3.21V25h-2.63v1c0 .2.08.25.53.25h1.69c.34 0 .4-.07.41-.73a.87.87 0 00.35.13c0 .75-.18.93-.69.93h-1.75c-.7 0-.88-.09-.88-.58v-1.32h2.61zm-.07 7a11 11 0 01-2.32 1.64 1.69 1.69 0 00-.27-.26 9.08 9.08 0 002.25-1.49zm-.36-.79h2.54v-1.54H144zm4.3-6.16h-2.77v-.35h3.12V25h-2.54v1c0 .21.08.26.57.26h1.89c.35 0 .41-.08.44-.8a1.11 1.11 0 00.34.14c0 .79-.18 1-.72 1h-1.93c-.73 0-.94-.09-.94-.59v-1.33h2.54zm.33 8.65a11.78 11.78 0 00-2.3-1.56l.22-.2A12 12 0 01149 32zM153.83 29v3.91c0 .36-.13.5-.37.56a8.11 8.11 0 01-1.62.07 1.27 1.27 0 00-.15-.35h1.52c.17 0 .28-.06.28-.26v-3.85l-2 .58-.15-.38c.59-.14 1.33-.34 2.14-.56v-3.07h-2v-.36h2v-2.58h.34v2.58h1.84v.36h-1.84v3l1.86-.52.05.32zm5.32-1.09c.54 2.41 1.65 4.45 3.32 5.33a2.74 2.74 0 00-.28.3c-1.7-1-2.83-3.1-3.38-5.63h-2.06c0 1.8-.31 4-1.84 5.61a1.88 1.88 0 00-.26-.22c1.58-1.65 1.75-4 1.75-5.77v-4.11h5.35v4.47zm2.24-.35v-3.79h-4.64v3.77zM167.18 23.53a5 5 0 00-.07.8c-.05 1.4-.15 4.37-.15 6.44 0 1.4 1 1.92 2.26 1.92a5.16 5.16 0 004.45-2.48l.26.32a5.7 5.7 0 01-4.75 2.52c-1.47 0-2.58-.58-2.58-2.42s.13-4.83.13-6.3a3.72 3.72 0 00-.06-.8zM177.63 24.92c.55-.06 3.08-.34 5.28-.52 1.37-.12 2.29-.18 3-.2v.39a8.39 8.39 0 00-2.35.22 4.68 4.68 0 00-2.89 4.19c0 2.69 2.49 3.45 4.34 3.49l-.13.36c-1.91 0-4.57-1-4.57-3.75a5 5 0 012.69-4.36c-1.06.12-5 .48-6.23.72l-.06-.48c.41.02.68-.04.92-.06zM195.52 23.65c-.13.1-.47.43-.59.54-.86.8-2.71 2.3-3.67 3.08-.8.69-.83.91.06 1.63a56.8 56.8 0 014.52 4l-.32.28c-.16-.19-.43-.43-.6-.62-.64-.71-2.81-2.55-3.93-3.46s-.9-1.28 0-2.1 2.85-2.26 3.65-3.12a3.79 3.79 0 00.44-.57zM206.19 25.61a23.22 23.22 0 01-2.63.42c-.11.53-.23 1.09-.38 1.63a32.51 32.51 0 01-1.84 5.39l-.45-.14a26.39 26.39 0 001.93-5.29 28 28 0 00.36-1.55c-.51.05-1 .07-1.39.07s-.88 0-1.32-.05v-.39a9.68 9.68 0 001.35.08c.42 0 .91 0 1.45-.07.12-.6.23-1.13.27-1.39a3.92 3.92 0 000-.76l.5.05a6 6 0 00-.17.76c-.07.38-.16.82-.25 1.3a17 17 0 002.54-.46zm-.71 4.39a4.32 4.32 0 00-.18 1.15c0 .6.24 1.28 2.34 1.28a11.12 11.12 0 002.18-.21v.42a15.55 15.55 0 01-2.18.16c-1.74 0-2.69-.48-2.69-1.63a5.83 5.83 0 01.15-1.17zm.11-2.8c.57-.05 1.29-.08 2-.08a18.27 18.27 0 012 .09v.4a15.2 15.2 0 00-1.95-.13c-.67 0-1.39 0-2.1.12zm3.49-1.45a12.58 12.58 0 00-1-1.67l.33-.15a13.16 13.16 0 011 1.65zm.54-2.25a13.11 13.11 0 011 1.65l-.33.17a13.07 13.07 0 00-1-1.67zM221.43 25.29a20.67 20.67 0 01-2.46.5c.38.83 1.13 2.53 1.66 3.61l-.27.26a22.16 22.16 0 00-2.22-.28l.06-.34 2 .23c-.41-.89-1.2-2.58-1.55-3.41a22.82 22.82 0 01-5.1.06v-.41a20.63 20.63 0 005 0c-.16-.4-.31-.71-.52-1.18s-.29-.63-.42-.86l.45-.09c.39 1 .58 1.42.85 2.08a15.27 15.27 0 002.53-.59zm-6.91 3.84a4.45 4.45 0 00-.35 1.57c0 1.22 1 1.89 2.84 1.89a11.59 11.59 0 003-.31v.42a15.34 15.34 0 01-3 .25c-2 0-3.2-.86-3.2-2.18a5.56 5.56 0 01.32-1.69zM225.68 25.37c0 .71 0 2 .09 3.1.23 2.26 1 3.7 2 3.7.65 0 1.28-1.05 1.68-2.49l.32.27c-.65 2-1.35 2.62-2 2.62-.94 0-2-1.08-2.29-4.05-.11-1-.14-2.45-.14-3.11a6.63 6.63 0 000-.91h.49a8.22 8.22 0 00-.15.87zm8.5 5.11l-.37.16a11.39 11.39 0 00-2-5.59l.36-.14a12 12 0 012.01 5.57zM239.5 31.5a1.72 1.72 0 11-1.71-1.71 1.72 1.72 0 011.71 1.71zm-.36 0a1.36 1.36 0 10-1.35 1.36 1.35 1.35 0 001.35-1.36z"/></g><g fill="#393939"><path d="M7.23 8.26H2.31L.93 11.62H.5l4-9.9H5l4 9.9h-.39zm-.16-.39L5.07 3l-.3-.81-.3.8-2 4.92zM14.85 11.6h-.54L11.1 1.7h.45l3 9.53 2.82-9.53h.51l2.78 9.54 3-9.54h.43l-3.19 9.9h-.54l-2.13-7.32-.6-2.08L17 4.28zM34.16 3.83l-.35.27a2.77 2.77 0 00-1.15-1.63 4 4 0 00-2.15-.53 4.19 4.19 0 00-1.65.31 2.55 2.55 0 00-1.1.83 2 2 0 00-.38 1.19 1.66 1.66 0 00.31 1 2.44 2.44 0 001.07.73 10.53 10.53 0 002.07.53 9.33 9.33 0 012.05.56 2.56 2.56 0 011.1.83 2.1 2.1 0 01.34 1.23 2.15 2.15 0 01-.45 1.34 3 3 0 01-1.29.93 5.06 5.06 0 01-1.89.33 5 5 0 01-2.69-.64 2.93 2.93 0 01-1.37-1.89L27 9a2.62 2.62 0 001.22 1.81 4.58 4.58 0 002.46.62A4 4 0 0033 10.8a1.85 1.85 0 00.9-1.63 1.63 1.63 0 00-.72-1.4A6.2 6.2 0 0030.72 7a10.43 10.43 0 01-2.24-.59 2.6 2.6 0 01-1.17-.85A2.14 2.14 0 0127 4.28a2.28 2.28 0 01.43-1.35 2.94 2.94 0 011.23-1 4.46 4.46 0 011.89-.37c1.9.01 3.12.76 3.61 2.27zM42.94 10.44a6.41 6.41 0 00.93-.11 3.91 3.91 0 003.33-3.85 3.7 3.7 0 00-3.85-3.73 22.28 22.28 0 01-.7 3.6c-.73 2.48-1.6 3.52-2.52 3.52s-1.82-1-1.82-2.9a4.84 4.84 0 014.94-4.58 4.08 4.08 0 014.31 4.1c0 2.48-1.75 4.06-4.4 4.33zm0-7.68A4.51 4.51 0 0038.67 7c0 1.8.91 2.53 1.49 2.53s1.41-.83 2.13-3.24A18.28 18.28 0 0043 2.76zM52.9 5.39c.35.44 1.6 2.28 1.87 2.73l-.31.29c-.24-.49-1.09-1.82-1.56-2.52v5.64h-.34V6a15 15 0 01-2 3.81 1.12 1.12 0 00-.25-.28 13.82 13.82 0 002.15-4.37h-2v-.37h2v-4h.34v4h2.16v.35H52.9zm-1.44-1.24a11.43 11.43 0 00-.76-2.54l.3-.07a11.32 11.32 0 01.78 2.53zm3.4-2.5a26.6 26.6 0 01-1 2.6l-.27-.12a21.8 21.8 0 00.93-2.62zM59.61 8v3.52h-.35V8.07l-4.14.76-.07-.34 4.21-.74v-7h.35v6.93l1.59-.29.07.33zm-2.09-1.56a8.66 8.66 0 00-2-1.38l.17-.24a9.47 9.47 0 012 1.32zm.59-2.87A8.79 8.79 0 0056.18 2l.21-.25a7.91 7.91 0 011.92 1.5zM68.81.73A16.22 16.22 0 0074.15 5a1.66 1.66 0 00-.24.3 16.5 16.5 0 01-5.23-4.19 15.3 15.3 0 01-5.1 4.31 1.57 1.57 0 00-.21-.28A14 14 0 0068.48.73zm.06 10h5v.35H63.58v-.35h4.93V7.18h-4.43v-.36h4.43v-2h-2.76v-.38h6v.36h-2.88v2h4.57v.36h-4.57zm-3.25-2.9a7.36 7.36 0 011.19 2.33l-.31.13a7.84 7.84 0 00-1.18-2.35zm4.72 2.32a18.36 18.36 0 001.44-2.38l.33.17a21.42 21.42 0 01-1.5 2.37zM82 6.94c-1.29.67-2.37 1.42-2.37 2.41 0 1.2 1.27 1.29 2.57 1.29a22.58 22.58 0 003.11-.24v.41a28.24 28.24 0 01-3.13.19c-1.53 0-2.89-.27-2.89-1.63s1.27-2 2.68-2.79h.06v-.11c0-.63-.49-1-1.23-1a3.28 3.28 0 00-2.24.92c-.32.3-.67.73-1.07 1.18l-.36-.26a12.48 12.48 0 002.85-4h-.84c-.53 0-1.24 0-1.9-.06v-.42a17.64 17.64 0 001.92.11h1a6 6 0 00.38-1.58h.4a11.81 11.81 0 01-.4 1.54 30.36 30.36 0 003.89-.37v.39a30.82 30.82 0 01-4 .35v.08a8.66 8.66 0 01-1.42 2.38 3.45 3.45 0 011.94-.65 1.4 1.4 0 011.54 1.26c1-.49 2-.88 2.76-1.24a4.62 4.62 0 00.63-.31l.18.41c-.21.06-.44.16-.68.25-.82.33-1.85.73-2.89 1.26v2.45H82V6.9zM98 3.4a22.88 22.88 0 01-2.46.5c.38.83 1.13 2.53 1.67 3.61l-.28.25c-.38-.08-1.56-.23-2.22-.27l.06-.34 2 .23c-.41-.89-1.2-2.58-1.55-3.41V4A24.07 24.07 0 0190 4v-.4a21.24 21.24 0 005 0c-.17-.4-.32-.71-.53-1.18a7.77 7.77 0 00-.47-.83l.45-.09c.39 1 .58 1.42.85 2.08A15.61 15.61 0 0097.88 3zm-7 3.84a4.45 4.45 0 00-.35 1.57c0 1.22 1 1.89 2.84 1.89a11.59 11.59 0 003-.31v.42a15.34 15.34 0 01-3 .25c-2 0-3.2-.86-3.2-2.18a5.56 5.56 0 01.32-1.69zM97.1.91a13.76 13.76 0 011 1.66l-.33.17a11.08 11.08 0 00-1-1.67zm1.22-.43a15.29 15.29 0 011 1.66l-.32.17a10.22 10.22 0 00-1-1.67zM103.36 5.9a15.59 15.59 0 014.13-1 2.43 2.43 0 012.67 2.36c0 2.43-2.52 3.29-5.15 3.46l-.15-.39c2.44-.09 4.93-.82 4.93-3.07a2.08 2.08 0 00-2.3-2c-1.56 0-4.39 1.19-4.89 1.36l-.2-.43a8.28 8.28 0 00.96-.29zM120.3 1.67c-.13.11-.46.43-.58.54-.87.8-2.71 2.3-3.67 3.08-.81.7-.83.91.06 1.63a55 55 0 014.52 4l-.33.27c-.15-.19-.43-.43-.6-.62-.63-.71-2.8-2.54-3.93-3.46s-.9-1.28 0-2.09 2.84-2.27 3.64-3.12a3.94 3.94 0 00.45-.58zM128.06 1.43a25.1 25.1 0 00-.63 4.14c.39-1.54 1.83-3.49 3.51-3.49 1.5 0 2.49 1.56 2.49 3.93 0 3.23-2.1 4.55-4.83 5l-.23-.35c2.51-.37 4.69-1.58 4.69-4.66 0-1.94-.65-3.6-2.16-3.6s-3.07 2.19-3.31 3.75a5.13 5.13 0 000 1.66h-.39a15.12 15.12 0 01-.11-1.78 35.11 35.11 0 01.39-3.88c0-.31.07-.55.1-.8zM137.7 2.73h4.6v.36h-4.6zm.55 1.58h3.61v.35h-3.61zm0 1.57h3.61v.35h-3.61zm3.57 4.93h-3.21v.62h-.36v-4h3.57zm0-9.26h-3.55V1.2h3.55zm-3.25 6.26v2.64h2.86V7.81zm10.08-2.55h-2.91v6.27h-.35V5.26h-3.1v-.35h3.1V.75h.35v4.16h2.91zM152 2.09a7.29 7.29 0 01-1.09 1.42 2 2 0 00-.3-.22 7.2 7.2 0 001.73-2.57l.33.09a8.73 8.73 0 01-.44.93h3.67v.35h-2.48a5.8 5.8 0 01.58 1.07l-.32.14a7 7 0 00-.68-1.21zm9.31 7.33h-3v2.1H158v-2.1h-3.77c-.28.73-1 1.51-3 2.13a3.07 3.07 0 00-.24-.29c1.79-.51 2.54-1.19 2.83-1.84h-3.05v-.35H154a2.54 2.54 0 00.09-.7v-.68h-1.77v-4.3H160v4.3h-1.58v1.38h3zm-8.67-4.73h6.94v-1h-6.94zm0 1.31h6.94V5h-6.94zm0 1.34h6.94v-1h-6.94zM158 9.07V7.69h-3.59v.7a2.81 2.81 0 01-.07.68zm-1.44-7a5.53 5.53 0 01-1 1.24c-.06-.06-.22-.18-.3-.24a5.66 5.66 0 001.62-2.35l.35.07a4.77 4.77 0 01-.43 1h4.37v.35h-2.83a4.5 4.5 0 01.77 1l-.3.18a5 5 0 00-.91-1.21zM165.3 3.06c.55-.06 3.08-.33 5.27-.51 1.37-.12 2.29-.18 3-.21v.4a8.37 8.37 0 00-2.35.21 4.68 4.68 0 00-2.93 4.18c0 2.68 2.49 3.44 4.34 3.49l-.13.36c-1.91 0-4.57-1-4.57-3.76a5 5 0 012.65-4.34c-1.05.12-5 .48-6.22.72l-.06-.48a9.29 9.29 0 001-.06zm7.64 3.12l-.34.17a11.7 11.7 0 00-1-1.73l.32-.16a14.65 14.65 0 011.02 1.72zm1.31-.46l-.33.17a12.4 12.4 0 00-1-1.73l.31-.15a14.35 14.35 0 011.02 1.71zM186.28 4.94a13.81 13.81 0 01-2.2.56c.39.86.83 1.8 1.14 2.37l-.22.26-2-.26v-.34c.69.1 1.35.17 1.75.22-.24-.49-.64-1.35-1-2.19a26.45 26.45 0 01-5.39.14v-.4a23.93 23.93 0 005.25-.07c-.27-.59-.5-1.13-.65-1.47-.08-.18-.15-.36-.24-.54a23.38 23.38 0 01-4.27 0v-.4a20.11 20.11 0 004.16.05c-.11-.26-.22-.5-.3-.7s-.21-.46-.31-.66l.45-.12c.16.46.35 1 .54 1.43a12.41 12.41 0 002.45-.56l.08.38a16.58 16.58 0 01-2.38.53l.19.47c.12.29.37.87.67 1.53a11.53 11.53 0 002.27-.6zm-7 2.73a3.87 3.87 0 00-.28 1.26c0 1.09.91 1.72 2.77 1.72a12.72 12.72 0 002.7-.26v.41a17.88 17.88 0 01-2.68.21c-2 0-3.15-.7-3.15-2a4.69 4.69 0 01.26-1.37zM199 10.35a8.73 8.73 0 00-3.33-1.88v1c0 .63-.32 1.54-1.86 1.54s-2.39-.5-2.39-1.53 1-1.6 2.57-1.6a6.4 6.4 0 011.26.13c0-.71 0-1.49-.07-2.13h-.72c-.92 0-2.19-.07-3.1-.17v-.4a24.58 24.58 0 003.1.21h.72V3.35h-.62a29.7 29.7 0 01-3-.18v-.4a19.5 19.5 0 003 .23h.64V2v-.61h.43a5.19 5.19 0 00-.05.75V3a28.63 28.63 0 003.25-.31v.39c-1.12.11-2.2.22-3.25.27v2.16a29.81 29.81 0 003.42-.34v.4a32.72 32.72 0 01-3.43.3c0 .8 0 1.58.09 2.23a10 10 0 013.58 1.9zm-3.7-2a5.66 5.66 0 00-1.3-.11c-1.44 0-2.18.55-2.18 1.23s.5 1.18 2 1.18c.74 0 1.47-.22 1.47-1.18.03-.29.02-.68.02-1.08zM209.67 3h3.27v.39c-.6 0-1.53-.05-3.26-.05h-.59v2.12a2.74 2.74 0 01.33 1.4c0 1.67-.65 3.28-3.27 4.12l-.37-.34c2-.5 3-1.56 3.21-3a1.48 1.48 0 01-1.33.81 1.73 1.73 0 01-1.86-1.82 1.92 1.92 0 011.82-1.91 1.72 1.72 0 011.11.36V3.37c-1.82 0-4 .09-5.51.24v-.4c1.25 0 3.51-.14 5.5-.16V1.86a2.26 2.26 0 00-.05-.47h.48v1.65zM209 6.55c-.12-1-.67-1.44-1.36-1.44a1.51 1.51 0 00-1.48 1.55 1.38 1.38 0 001.49 1.46c.87 0 1.35-.62 1.35-1.57zM218 9.53a1.72 1.72 0 11-1.72-1.72A1.72 1.72 0 01218 9.53zm-.36 0a1.36 1.36 0 10-1.36 1.35 1.36 1.36 0 001.35-1.35z"/></g></svg>