<svg xmlns="http://www.w3.org/2000/svg" viewBox="0 0 240 34" width="240" height="34"><g fill="#393939"><path d="M8.49 24c-.09.19-.22.53-.32.75a15.37 15.37 0 01-1.92 3.69 31.59 31.59 0 013 2.81l-.48.51a27.85 27.85 0 00-2.92-2.82A14.9 14.9 0 011 32.9l-.53-.47a13.63 13.63 0 004.88-3.91A35.36 35.36 0 001.91 26l.39-.48c1.07.69 2.56 1.75 3.46 2.48a13.62 13.62 0 001.81-3.5 6.65 6.65 0 00.23-.75zM13.07 31c.37 0 .7.06 1.11.06h7.37a7.57 7.57 0 00.95-.06v.74h-9.43zm1-6h7.43v.68h-7.34zM33.63 31.78h.81v.62h-8.39v-.65h5.51c.17-.92.59-3.71.61-4.4h-5v-.66h4.82a1.52 1.52 0 00.42 0l.48.22a1.67 1.67 0 00-.06.29c-.08.88-.48 3.49-.65 4.52zM37.51 27.69h8.17a10.33 10.33 0 001.22 0v.75h-9.43zM54.22 23.41c0 .17-.07.35-.1.54s-.18 1.2-.34 2c.64-.05 1.23-.1 1.53-.1.94 0 1.81.32 1.81 1.87a11.16 11.16 0 01-.71 4.25 1.53 1.53 0 01-1.62.93 6.49 6.49 0 01-1.38-.18l-.09-.72a5.3 5.3 0 001.46.25 1.06 1.06 0 001.13-.66 10.81 10.81 0 00.6-3.85c0-1.16-.56-1.38-1.31-1.38-.35 0-.93.05-1.55.1a23.5 23.5 0 01-2.53 6.41l-.65-.27A18.94 18.94 0 0053 26.53l-1.78.17c-.23 0-.64.07-.91.12l-.08-.71h.93c.33 0 1.19-.08 2-.14a12.94 12.94 0 00.32-2.62zm4.09 1.36a20.52 20.52 0 012.21 4.13l-.58.3a15.3 15.3 0 00-2.2-4.2zM65.11 29.1a5.68 5.68 0 014.06-1.61c1.66 0 2.89 1 2.89 2.36 0 2.1-2 3.41-6.1 3.07l-.18-.63c3.85.43 5.64-.77 5.64-2.46 0-1-1-1.78-2.28-1.78a4.83 4.83 0 00-3.88 1.68 2 2 0 00-.3.54l-.64-.14a40.2 40.2 0 00.61-4.73l.69.09c-.16.88-.36 2.79-.51 3.61zm1-5.65a32.74 32.74 0 004.51.92l-.16.6c-1.08-.14-3.62-.66-4.51-.91zM84.93 26a5.59 5.59 0 001-.07v.69h-2.58V27c0 3.33-.66 4.87-3.31 6.07l-.52-.49c2.09-.85 3.23-1.88 3.23-5.49v-.49H79v3.13h-.69c0-.05.05-.58.05-1V26.6h-2.57V26a9.12 9.12 0 001.14.07h1.47v-1.79a5.74 5.74 0 00-.05-.75H79V26h3.75v-1.63-.9h.71a6.61 6.61 0 00-.06.9V26zM88.51 27.69h8.17a10.33 10.33 0 001.22 0v.75h-9.43zM102.62 31.1c0 .67.27.84.87 1a13 13 0 001.71.11 19.63 19.63 0 004.06-.37v.71a34.88 34.88 0 01-4.08.25 12.65 12.65 0 01-1.86-.11c-.85-.16-1.31-.48-1.31-1.43V24.6a4.11 4.11 0 00-.07-.82h.73v3.82a31.1 31.1 0 004.8-1.53 6.41 6.41 0 00.91-.49l.29.63c-.27.12-.64.29-1 .42a43.69 43.69 0 01-5 1.61zm6.08-5.78a11.28 11.28 0 00-1-1.66l.46-.2a15.5 15.5 0 011 1.64zm.74-2.3a14.73 14.73 0 011 1.63l-.46.21a13.31 13.31 0 00-1-1.64zM121.77 24.71a1.83 1.83 0 00-.21.39 15.16 15.16 0 01-2.1 3.65 35.51 35.51 0 013.54 3.67l-.51.46a31.31 31.31 0 00-3.47-3.68 15.27 15.27 0 01-4.79 3.59l-.49-.52a13.64 13.64 0 005-3.63 11.4 11.4 0 002.11-3.57h-5c-.38 0-1 .05-1.09.05v-.71c.07 0 .72.06 1.09.06h4.86a3 3 0 00.7-.07zM131.28 31.11c0-.5.05-1.42.05-2.09-1.23.65-2.19 1.35-2.19 2.26 0 1.08 1.13 1.2 2.4 1.2a23 23 0 003.16-.26v.63a28.09 28.09 0 01-3.17.19c-1.61 0-3-.31-3-1.7s1.36-2.17 2.76-2.9a1 1 0 00-1.17-.94 3.23 3.23 0 00-2.16.9 15.84 15.84 0 00-1.08 1.21l-.54-.41a12.25 12.25 0 002.8-3.85h-.7c-.53 0-1.26 0-1.92-.06v-.63a15.78 15.78 0 002 .12h.87a6.86 6.86 0 00.36-1.53h.64c-.09.38-.21.9-.39 1.48a30.45 30.45 0 003.78-.37V25a32.2 32.2 0 01-4 .33 8.7 8.7 0 01-1.3 2.2 3.48 3.48 0 011.81-.57 1.47 1.47 0 011.58 1.19c.92-.44 1.8-.79 2.5-1.11.29-.14.51-.24.77-.39l.26.61c-.25.08-.55.2-.82.3-.76.3-1.72.69-2.7 1.17v2.37zM140.69 31.32a4 4 0 003.31 1.46c1.28 0 4 0 5.34-.06a1.85 1.85 0 00-.19.56c-1.26 0-3.84.06-5.12 0a4.5 4.5 0 01-3.6-1.49c-.55.54-1.11 1.09-1.7 1.63l-.34-.55a19.23 19.23 0 001.73-1.54V28h-1.61v-.55h2.15zm-.11-6a8.36 8.36 0 00-1.91-2.05l.45-.3a8.22 8.22 0 011.93 2zm8.7 4.83h-8v-.49h2.29v-1.34h-1.9v-.48h1.9v-1h.55v1h2.29v-1h.59v1h1.92v.48H147v1.34h2.3zm-5-6.49h-2.73v-.45h3.25v1.87h-2.5v.83c0 .21.07.26.49.26h1.52c.33 0 .37-.07.41-.67a1.44 1.44 0 00.47.18c-.06.76-.24.93-.78.93h-1.65c-.77 0-1-.12-1-.7v-1.3h2.5zm.19 6.92a10.58 10.58 0 01-2.33 1.6 3.16 3.16 0 00-.43-.38 8.61 8.61 0 002.29-1.4zm-.35-.92h2.29v-1.34h-2.29zm4-6h-2.62v-.45h3.2v1.87h-2.46v.82c0 .22.07.27.53.27h1.69c.34 0 .4-.08.43-.73a1.58 1.58 0 00.46.18c0 .8-.23 1-.82 1h-1.79c-.8 0-1-.12-1-.71v-1.3h2.44zm.29 8.57a11 11 0 00-2.24-1.5l.39-.29a13 13 0 012.44 1.49zM153.91 29.05v3.69c0 .42-.14.6-.41.71a7.56 7.56 0 01-1.69.1 1.73 1.73 0 00-.2-.56h1.47c.15 0 .27-.06.27-.25V29.2l-1.87.51-.18-.58 2-.5v-2.87h-1.91v-.55h1.91v-2.53h.56v2.53h1.75v.55h-1.75v2.73l1.77-.47v.53zm5.37-1.05c.52 2.31 1.56 4.24 3.18 5.07a2.93 2.93 0 00-.42.5c-1.71-1-2.78-3.05-3.32-5.57h-1.82a8.16 8.16 0 01-1.84 5.56 2.05 2.05 0 00-.44-.39c1.56-1.62 1.71-3.89 1.71-5.71v-4.08h5.45V28zm-2.37-4v3.5h4.29V24zM167.3 23.46a6 6 0 00-.09 1c-.05 1.38-.15 4.28-.15 6.24 0 1.35.92 1.84 2.14 1.84a5 5 0 004.36-2.54l.44.53a5.81 5.81 0 01-4.84 2.57c-1.57 0-2.71-.64-2.71-2.52s.13-4.8.13-6.19a4.59 4.59 0 00-.07-1zM177.58 24.82c.64-.08 3.06-.33 5.24-.51 1.34-.12 2.34-.18 3.1-.2v.62a8.36 8.36 0 00-2.33.21 4.48 4.48 0 00-2.85 4c0 2.53 2.37 3.28 4.25 3.33l-.22.63c-2 0-4.63-1.12-4.63-3.83a4.88 4.88 0 012.47-4.19c-1.05.12-4.72.45-6 .7l-.07-.7zM195.63 23.74c-.18.14-.52.46-.68.6-.84.75-2.63 2.2-3.55 3s-.79.86 0 1.55c1.19.94 3.33 2.77 4.48 3.93l-.54.48c-.19-.23-.49-.49-.68-.72-.65-.71-2.75-2.48-3.86-3.39s-.94-1.36.06-2.21 2.78-2.23 3.58-3.07a3.92 3.92 0 00.54-.66zM206.21 25.69a21.67 21.67 0 01-2.56.41c-.11.53-.24 1.08-.38 1.61a33.64 33.64 0 01-1.85 5.4l-.71-.22a26.26 26.26 0 002-5.3c.12-.44.24-.94.35-1.43-.46 0-.89.06-1.28.06h-1.34v-.62a9.92 9.92 0 001.38.08q.61 0 1.38-.06c.11-.53.19-1 .23-1.25a4 4 0 000-.84l.77.06c-.06.23-.14.62-.18.83s-.15.72-.23 1.13a18.81 18.81 0 002.44-.44zm-.62 4.31a4.11 4.11 0 00-.18 1.11c0 .59.26 1.21 2.19 1.21a11.34 11.34 0 002.24-.22v.64a14.68 14.68 0 01-2.23.17c-1.8 0-2.76-.53-2.76-1.68a6.74 6.74 0 01.16-1.29zm-.06-2.83c.59-.06 1.35-.1 2.1-.1a16.49 16.49 0 012 .1v.61a13.84 13.84 0 00-2-.15 17.34 17.34 0 00-2.14.14zm3.47-1.41a13.22 13.22 0 00-1-1.66l.45-.21a14.59 14.59 0 011 1.64zm.72-2.32a12.61 12.61 0 011.05 1.64l-.47.22a12.48 12.48 0 00-1-1.66zM221.47 25.35a23.76 23.76 0 01-2.38.51c.41.89 1.12 2.45 1.65 3.49l-.4.38c-.43-.09-1.61-.25-2.31-.31l.07-.52 1.86.22c-.39-.83-1.09-2.33-1.45-3.17a24 24 0 01-5.09 0v-.64a19.79 19.79 0 004.85 0c-.14-.34-.28-.66-.46-1a6.81 6.81 0 00-.46-.91l.71-.15c.35.91.55 1.39.83 2a15.8 15.8 0 002.48-.59zm-6.83 3.74a4.58 4.58 0 00-.34 1.53c0 1.15.87 1.81 2.69 1.81a11.83 11.83 0 003.06-.32v.66A15.47 15.47 0 01217 33c-2.11 0-3.3-.87-3.3-2.27A5.75 5.75 0 01214 29zM225.8 25.42a26.88 26.88 0 00.1 3c.22 2.16.9 3.54 1.81 3.54.64 0 1.24-1.12 1.6-2.46l.5.51c-.68 2-1.39 2.66-2.11 2.66-1 0-2.06-1.11-2.4-4.12-.11-1-.12-2.46-.12-3.13a6.16 6.16 0 00-.06-1h.76c-.03.23-.06.71-.08 1zm8.46 5.06l-.62.25a11.53 11.53 0 00-2-5.71l.6-.22a12.35 12.35 0 012.02 5.68zM239.51 31.53a1.76 1.76 0 11-1.75-1.76 1.75 1.75 0 011.75 1.76zm-.46 0a1.3 1.3 0 10-1.29 1.3 1.29 1.29 0 001.29-1.3z"/></g><g fill="#393939"><path d="M7.29 8.52H2.55l-1.23 3.1H.53l4-9.9h.88l4 9.9h-.87zM7 7.83L5.3 3.51l-.36-1-.36 1-1.74 4.32zM15.54 11.61h-.93l-3.09-9.9h.81L15.08 11l2.59-9.28h.87l2.6 9.3 2.77-9.3h.77l-3.09 9.9h-.93l-2-6.95-.55-2.14-.55 2.14zM35 3.76l-.64.53a2.9 2.9 0 00-1.12-1.55 3.55 3.55 0 00-2-.48 3.88 3.88 0 00-1.51.27 2.22 2.22 0 00-1 .74 1.71 1.71 0 00-.34 1.05 1.5 1.5 0 00.28.94 2.16 2.16 0 001 .64 10.19 10.19 0 001.88.47 6.4 6.4 0 012.75 1 2.08 2.08 0 01.81 1.74 2.28 2.28 0 01-.47 1.41 3 3 0 01-1.31 1 5.29 5.29 0 01-1.94.33 5.1 5.1 0 01-2.63-.62A3.16 3.16 0 0127.3 9.4l.7-.51a2.72 2.72 0 001.21 1.63 4.14 4.14 0 002.24.56 3.84 3.84 0 002.11-.52 1.62 1.62 0 00.82-1.44 1.45 1.45 0 00-.67-1.26 6.1 6.1 0 00-2.32-.75 10.14 10.14 0 01-2.2-.59A2.56 2.56 0 0128 5.67a2.17 2.17 0 01-.36-1.28A2.41 2.41 0 0128.08 3a2.94 2.94 0 011.26-1 4.37 4.37 0 011.91-.39A3.66 3.66 0 0135 3.76zM43.72 10.31a6 6 0 001-.13 3.76 3.76 0 003.21-3.71 3.54 3.54 0 00-3.57-3.62 22.06 22.06 0 01-.7 3.53C42.9 8.85 42 10 41 10s-2-1.08-2-3a4.93 4.93 0 015.1-4.72 4.18 4.18 0 014.41 4.21c0 2.48-1.72 4.1-4.43 4.41zm0-7.45a4.37 4.37 0 00-4 4.06c0 1.68.82 2.37 1.38 2.37s1.32-.8 2-3a18.84 18.84 0 00.59-3.43zM53.88 5.5c.33.42 1.57 2.16 1.83 2.58l-.42.47c-.23-.48-.94-1.63-1.41-2.34v5.35h-.55V6.27a14.1 14.1 0 01-1.83 3.65 2.27 2.27 0 00-.32-.52 13.35 13.35 0 002-4.11h-1.84v-.56h2v-4h.55v4H56v.56h-2.12zM52.2 4.19a12.27 12.27 0 00-.72-2.59l.46-.1a11.36 11.36 0 01.75 2.56zm3.63-2.57a27.18 27.18 0 01-1 2.63l-.4-.14a20.55 20.55 0 00.86-2.65zm4.73 6.48v3.46H60V8.2l-4 .73-.11-.53L60 7.67V.72h.55v6.84l1.51-.26.1.52zm-2.23-1.6a9.77 9.77 0 00-2-1.41l.28-.4a9.4 9.4 0 012 1.34zm.55-2.89A8.48 8.48 0 0057 2.08l.32-.4a8.25 8.25 0 011.9 1.48zM69.78.7a15.13 15.13 0 005.28 4.2 2.76 2.76 0 00-.39.51 16.68 16.68 0 01-5.13-4.13 15.53 15.53 0 01-5 4.22 2.37 2.37 0 00-.36-.45A13.8 13.8 0 0069.22.7zm.06 9.92h4.88v.53H64.46v-.53h4.79V7.3H65v-.53h4.27V4.93h-2.66v-.54h6v.54h-2.77v1.84h4.37v.53h-4.37zm-3.24-2.8a7.93 7.93 0 011.16 2.25l-.49.22A7.8 7.8 0 0066.12 8zm4.51 2.26a17.29 17.29 0 001.38-2.3L73 8a23.55 23.55 0 01-1.48 2.3zM82.75 9.14V7.05c-1.23.65-2.19 1.34-2.19 2.25 0 1.08 1.13 1.2 2.4 1.2a21.54 21.54 0 003.16-.26v.63a28.1 28.1 0 01-3.17.2c-1.61 0-3-.31-3-1.71s1.36-2.17 2.76-2.9c0-.6-.51-.93-1.17-.93a3.23 3.23 0 00-2.16.9 14.13 14.13 0 00-1.08 1.21l-.54-.41a12.25 12.25 0 002.8-3.85h-.7c-.53 0-1.26 0-1.92-.06v-.61a18 18 0 002 .12h.87a6.34 6.34 0 00.36-1.53l.64.05c-.09.37-.21.9-.39 1.47a27 27 0 003.78-.37V3a34.25 34.25 0 01-4 .34A8.65 8.65 0 0180 5.56 3.47 3.47 0 0181.77 5a1.46 1.46 0 011.57 1.19c.92-.45 1.8-.8 2.5-1.12.29-.13.51-.24.77-.38l.26.61a8.28 8.28 0 00-.82.3c-.76.3-1.72.68-2.7 1.16v2.38zM98.83 3.46c-.82.22-1.64.39-2.38.51.41.88 1.12 2.44 1.64 3.49l-.39.38c-.43-.1-1.61-.24-2.32-.3l.08-.54c.49 0 1.42.15 1.85.21-.38-.83-1.09-2.33-1.45-3.17a25.24 25.24 0 01-5.08 0v-.58a19.79 19.79 0 004.85 0c-.15-.35-.3-.66-.48-1a5.64 5.64 0 00-.45-.92l.71-.13c.34.9.55 1.38.82 2a16.53 16.53 0 002.49-.59zM92 7.19a4.72 4.72 0 00-.35 1.55c0 1.15.88 1.8 2.7 1.8a11.83 11.83 0 003.06-.32v.65a14.49 14.49 0 01-3.06.27c-2.11 0-3.3-.88-3.3-2.27a6.07 6.07 0 01.33-1.74zm6-6.31a14.85 14.85 0 011 1.66l-.45.22a12.5 12.5 0 00-1-1.67zm1.26-.44a16 16 0 011 1.64l-.47.22a9.5 9.5 0 00-1-1.65zM104.19 5.78a15.69 15.69 0 014.15-1 2.51 2.51 0 012.77 2.47c0 2.38-2.38 3.36-5.25 3.54l-.25-.61c2.49-.08 4.89-.82 4.89-2.94a2 2 0 00-2.18-1.89c-1.52 0-4.26 1.15-4.87 1.36l-.28-.66a8.59 8.59 0 001.02-.27zM121.3 1.76c-.18.14-.52.47-.68.6-.84.76-2.63 2.21-3.55 3-.77.66-.79.87.05 1.55 1.19 1 3.33 2.77 4.48 3.93l-.54.48c-.19-.22-.49-.49-.68-.72-.65-.7-2.75-2.48-3.86-3.39s-.94-1.36.06-2.21 2.78-2.23 3.58-3.07a3.92 3.92 0 00.54-.66zM129 1.36a23.62 23.62 0 00-.6 3.81c.42-1.42 1.79-3.17 3.4-3.17s2.57 1.56 2.57 4c0 3.25-2.08 4.63-4.9 5.14l-.37-.57c2.54-.37 4.65-1.51 4.65-4.55 0-1.91-.63-3.45-2-3.45s-3 2.19-3.19 3.75a5.52 5.52 0 000 1.57h-.61a15.38 15.38 0 01-.12-1.82 32.57 32.57 0 01.39-3.86c0-.34.08-.62.09-.9zM138.53 2.7h4.65v.51h-4.65zm.55 1.59h3.66v.5h-3.66zm0 1.58h3.66v.5h-3.66zm3.62 5h-3.09v.59h-.53v-4h3.62zm0-9.21h-3.59v-.5h3.59zM139.61 8v2.39h2.55V8zm9.95-2.55h-2.82v6.15h-.57V5.41h-3v-.57h3V.73h.57v4.11h2.82zM153 2.18a8.51 8.51 0 01-1.08 1.35 4.78 4.78 0 00-.47-.33 6.93 6.93 0 001.7-2.52l.54.13c-.12.29-.26.58-.4.85h3.46v.52h-2.31a5.86 5.86 0 01.55 1l-.52.21a7 7 0 00-.64-1.17zm9.2 7.32h-2.87v2.06h-.57V9.5h-3.54c-.29.74-1.07 1.49-3 2.08a2.54 2.54 0 00-.37-.44c1.66-.45 2.41-1.06 2.73-1.64h-2.94V9h3.13a2.4 2.4 0 00.05-.52v-.74h-1.7V3.38h7.76v4.36h-1.54V9h2.87zm-8.52-4.81h6.6v-.86h-6.6zm0 1.28h6.6v-.85h-6.6zm0 1.32h6.6v-.88h-6.6zM158.76 9V7.74h-3.36v.75a2.93 2.93 0 010 .49zm-1.14-6.8a6 6 0 01-1 1.19 4.2 4.2 0 00-.49-.33 5.74 5.74 0 001.63-2.38l.55.12a6.1 6.1 0 01-.39.86h4.15v.52h-2.59a4.59 4.59 0 01.66.92l-.47.25a5.49 5.49 0 00-.88-1.17zM166.15 2.94c.64-.06 3-.33 5.24-.51 1.34-.11 2.34-.18 3.11-.2v.63a8.79 8.79 0 00-2.34.21 4.44 4.44 0 00-2.84 4c0 2.54 2.36 3.29 4.23 3.35l-.22.61c-2 0-4.61-1.12-4.61-3.82A4.85 4.85 0 01171.18 3c-1.05.11-4.72.45-6 .71l-.04-.71zm7.66 3.22l-.45.22a12.4 12.4 0 00-1-1.72l.43-.19a12.77 12.77 0 011.02 1.69zm1.34-.48l-.45.23a12 12 0 00-1-1.72l.42-.2a13.84 13.84 0 011.03 1.69zM187.19 5a16.61 16.61 0 01-2.13.54c.38.82.79 1.69 1.12 2.29l-.33.4c-.55-.09-1.41-.21-2.16-.3l.06-.5c.64.09 1.26.15 1.66.2-.24-.49-.59-1.25-.93-2a29.39 29.39 0 01-5.36.12v-.59a24.19 24.19 0 005.14-.06c-.21-.49-.42-1-.55-1.26s-.17-.38-.25-.58a22.14 22.14 0 01-4.23 0v-.59a19.2 19.2 0 004.05.08c-.09-.21-.18-.4-.25-.57a7.13 7.13 0 00-.36-.73l.71-.16c.13.44.31.92.49 1.38a13.66 13.66 0 002.42-.56l.12.58a18.48 18.48 0 01-2.32.51l.2.48c.12.28.34.77.6 1.34a10.85 10.85 0 002.23-.6zm-6.93 2.61a4.47 4.47 0 00-.26 1.26c0 1 .82 1.62 2.61 1.62a13.27 13.27 0 002.8-.26v.63a16.34 16.34 0 01-2.74.23c-2.07 0-3.25-.72-3.25-2.1a4.84 4.84 0 01.27-1.41zM199.79 10.44a8.41 8.41 0 00-3.14-1.84v.88c0 .71-.41 1.6-2 1.6s-2.49-.54-2.49-1.62 1-1.69 2.65-1.69a7 7 0 011.14.09c0-.63 0-1.31-.06-1.9h-.7c-.87 0-2.17-.07-3.06-.17v-.6a22.48 22.48 0 003 .23h.68v-2h-.61c-.86 0-2.2-.1-2.91-.18v-.59a20.06 20.06 0 002.9.23h.62V2v-.64h.67a7.51 7.51 0 00-.06.76v.77a26 26 0 003.17-.3v.6c-1 .1-2.08.2-3.17.27v2a28.61 28.61 0 003.38-.33v.6a30.26 30.26 0 01-3.37.29c0 .72.05 1.44.08 2.06a9.49 9.49 0 013.52 1.88zm-3.75-2a6.1 6.1 0 00-1.23-.13c-1.32 0-2 .5-2 1.11s.49 1.11 1.89 1.11c.7 0 1.36-.23 1.36-1.13-.01-.25-.06-.59-.06-.96zM210.48 2.92h3.35v.59h-3.76v2a2.72 2.72 0 01.37 1.49c0 1.63-.7 3.32-3.38 4.15l-.55-.53c1.82-.43 2.86-1.29 3.2-2.6a1.54 1.54 0 01-1.23.57 1.8 1.8 0 01-1.89-1.89 2 2 0 011.93-2 1.84 1.84 0 011 .24V3.48c-1.81 0-3.92.09-5.42.23v-.63c1.27 0 3.52-.12 5.42-.14v-1a3.16 3.16 0 00-.06-.59h.74a5 5 0 000 .59v1zm-.7 3.47a1.21 1.21 0 00-1.25-1.13 1.37 1.37 0 00-1.35 1.42A1.28 1.28 0 00208.54 8c.78 0 1.24-.58 1.24-1.61zM218.88 9.56a1.76 1.76 0 11-1.75-1.77 1.75 1.75 0 011.75 1.77zm-.46 0a1.3 1.3 0 10-1.29 1.29 1.3 1.3 0 001.29-1.29z"/></g></svg>