<svg xmlns="http://www.w3.org/2000/svg" viewBox="0 0 100 100"><path fill="#9D5025" d="M19.3 24.2l-3.4 1.7v48.2l3.4 1.7L32.9 50z"/><path fill="#F58536" d="M27.3 74l-8 1.8V24.2l8 1.8z"/><path fill="#9D5025" d="M23.1 22.3l4.2-2.1L37.2 50l-9.9 29.8-4.2-2.1z"/><path fill="#F58536" d="M37.2 77l-9.9 2.8V20.2l9.9 2.8z"/><path fill="#9D5025" d="M32 17.8l5.2-2.6L70.1 50 37.2 84.8 32 82.2z"/><path fill="#F58536" d="M72.7 71.6L37.2 84.8V15.2l35.5 13z"/><path fill="#6B3A19" d="M68.2 43.5l-6.7.4-18.3-1.5L50 8.8z"/><path fill="#9D5025" d="M50 41.7V8.8l-6.8 3.4v30.2z"/><path fill="#F58536" d="M68.2 43.5V17.9L50 8.8v32.9z"/><path fill="#FBBF93" d="M68.2 56.3l-6.3-.4-18.7 1.5L50 91.2z"/><path fill="#9D5025" d="M43.2 57.4v30.4l6.8 3.4V58.1z"/><path fill="#F58536" d="M50 58.1v33.1l18.2-9.1V56.3z"/><path fill="#FBBF93" d="M84.1 54.7l-3.9-.2-10.1.9L74.4 79z"/><path fill="#F58536" d="M74.4 55.7V79l9.7-4.9V54.7z"/><path fill="#6B3A19" d="M84.1 45.1l-3.9.2-10.1-.9L74.4 21z"/><path fill="#F58536" d="M84.1 45.1V25.9L74.4 21v23.1z"/><path fill="#9D5025" d="M70.1 77.9l4.3 1.1V55.7l-4.3-.3zM70.1 22.1l4.3-1.1v23.1l-4.3.3z"/></svg>