<svg xmlns="http://www.w3.org/2000/svg" viewBox="0 0 100 100"><path fill="#8C3123" d="M21.4 23.1l-5.5 2.8V74l5.5 2.8 13.5-26.9z"/><path fill="#E05243" d="M50 69.8l-28.6 7V23.1L50 30l13.5 20z"/><path fill="#8C3123" d="M50 69.8l28.6 7 4.9-26.2-4.9-27.5L50 30z"/><path fill="#E05243" d="M78.6 23.1l5.5 2.8V74l-5.5 2.8z"/><path fill="#8C3123" d="M37.5 58.8L50 60.4 59.9 50 50 39.6l-12.5 1.6z"/><path fill="#5E1F18" d="M62.5 32.7L50 35l-12.5-2.3L50 8.8z"/><path fill="#F2B0A9" d="M62.5 67.3L50 65l-12.5 2.3L50 91.2z"/><path fill="#E05243" d="M62.5 32.7L50 29.6V8.8l12.5 6.3z"/><path fill="#8C3123" d="M37.5 32.7L50 29.6V8.8l-12.5 6.3z"/><path fill="#E05243" d="M50 91.2l12.5-6.3V67.3L50 70.4z"/><path fill="#8C3123" d="M50 91.2l-12.5-6.3V67.3L50 70.4z"/><path fill="#E05243" d="M62.5 58.8L50 60.4V39.6l12.5 1.6z"/></svg>